<svg xmlns="http://www.w3.org/2000/svg" viewBox="0 0 512 512">
<path d="M440,192h-48v-16.48c9.92-13.344,16-29.664,16-47.52c0-44.096-35.904-80-80-80c-12.576,0-24.704,2.912-35.552,8.352
C282.336,23.744,251.904,0,216,0s-66.336,23.744-76.448,56.352C128.704,50.912,116.576,48,104,48c-44.096,0-80,35.904-80,80
c0,17.856,6.08,34.176,16,47.52V448c0,35.296,28.704,64,64,64h224c35.296,0,64-28.704,64-64v-32h48c26.464,0,48-21.536,48-48V240
C488,213.536,466.464,192,440,192z M360,448c0,17.632-14.368,32-32,32H104c-17.632,0-32-14.368-32-32V201.216
c9.824,4.32,20.608,6.784,32,6.784v32c0,20.832,13.408,38.432,32,45.056V400c0,8.832,7.168,16,16,16c8.832,0,16-7.168,16-16
V285.056c18.592-6.624,32-24.224,32-45.056v-22.72c29.952,13.248,67.776,5.504,90.464-18.624C301.824,204.8,314.56,208,328,208
c11.392,0,22.176-2.464,32-6.784V448z M328,176c-11.456,0-22.016-3.872-30.528-11.2c-3.52-3.04-8.256-4.32-12.864-3.68
c-4.608,0.736-8.672,3.424-11.168,7.392c-16.48,26.56-57.536,30.048-77.28,7.008c-4.384-5.12-11.424-6.944-17.696-4.608
C172.16,173.248,168,179.232,168,185.92V240c0,8.832-7.168,16-16,16c-8.832,0-16-7.168-16-16v-50.24
c0-5.088-2.432-9.888-6.528-12.896c-2.784-2.048-6.112-3.104-9.472-3.104c-1.6,0-3.2,0.224-4.736,0.704
C112,175.488,108.224,176,104,176c-26.464,0-48-21.536-48-48s21.536-48,48-48c14.048,0,27.168,6.08,36.032,16.672
c4.608,5.536,12.288,7.264,18.88,4.256c6.56-2.976,10.336-9.984,9.184-17.088C167.936,82.688,168,81.344,168,80
c0-26.464,21.536-48,48-48s48,21.536,48,48c0,1.344,0.064,2.688-0.096,3.84c-1.152,7.104,2.624,14.112,9.152,17.088
c6.624,3.04,14.304,1.28,18.88-4.256C300.832,86.08,313.952,80,328,80c26.464,0,48,21.536,48,48S354.464,176,328,176z M456,368
c0,8.832-7.168,16-16,16h-48V224h48c8.832,0,16,7.168,16,16V368z"/>
<path d="M280,256c-8.832,0-16,7.168-16,16v128c0,8.832,7.168,16,16,16c8.832,0,16-7.168,16-16V272
C296,263.168,288.832,256,280,256z"/>
</svg>
