<svg xmlns="http://www.w3.org/2000/svg" viewBox="0 0 100 100"><g fill="#9c8884"><path d="M34.5 25.5c-.3.4.4.4.1 0h-.1zM35.6 18.4c.3-.1.3-.7.1-1-1-.6-1.4 1.3-.1 1zm-.2-.9c.1.1 0 .4 0 .6h-.3c-.1-.2-.1-.6.3-.6zM33.8 18.7c.3.1.4-.3.3-.6-.3.1-.4.3-.3.6zM31.3 21.6c.4-.1 1-.3 1.5-.6-.6.1-1 .3-1.5.6zM37.9 21.3s-.1-.1-.3 0c-.1.1-.1.3 0 .6.1-.2.3-.3.3-.6zM36.7 25.8c.1-.1.1-.3.1-.6-.3-.1-.4.1-.4.4 0 .2.2.2.3.2zM36.3 18.7c-.1-.1-.4 0-.3.3.1 0 .3 0 .3-.3zM32.2 19.2c-.1-.4-.9.1-.6.6.3-.1.6-.4.6-.6zM33.8 22c-.7.3-1.6.6-2 1.2.6-.1 1.3-.7 2-1V22zM38.8 18.1c-.3-.4-1 0-.9.6.4.4 1 0 .9-.6zm-.3.1c0 .3 0 .4-.3.3 0-.1.1-.3.3-.3zM31.6 22.4c.9-.3 1.6-.6 2.2-1-.9.2-1.4.6-2.2 1zM33.4 22.6c-.7.3-1.3.6-1.7 1.2.3.1.7-.3 1-.6.2-.2.8-.3.7-.6zM31.9 24.2c.4-.1.6-.4.9-.7-.3.3-.7.3-.9.7zM34 19.7c-.4-.4-1 .1-.6.6.4.1.6-.2.6-.6zM34.7 19c.1 0 .1-.3.1-.6-.3-.2-.4.6-.1.6zM48.5 22.2c-.3-.3-.6.1-.3.4.2 0 .3-.2.3-.4zM45.2 31.3c0 .3.1.3.6.3.1-.1.3-.4.1-.7-.6 0-.4.4-.7.4zM46.9 22.3c-.3-.1-.6.1-.7.3v.6c.6.1.9-.3.7-.9zm-.3.3c0 .1 0 .3-.3.3 0-.2.2-.3.3-.3zM48.8 28c-.1-.3-1.3-.3-1.5 0 .5.3 1.1 0 1.5 0zM47.9 28.8c-.3.4-1 .6-.9 1 .2-.2.9-.7.9-1zM45.5 29c.4 0 .4-.3.3-.6-.5 0-.5.4-.3.6zM47.5 23.9c-.1 0-.1-.1-.3 0v.3c.1 0 .1-.2.3-.3zM45.3 18.8c0-.6-.7-.3-.7.1.1-.1.4.1.7-.1zM41.7 25.5h-.3c0 .1-.1.3 0 .4.3 0 .3-.3.3-.4zM41.5 14.6c-.4 0-.6.7-.7 1 .3-.1.4-.7.7-1zM45.3 21.6c.6.1.2-.6 0 0zM40.9 27.1h-.3c.1.3.3.1.3 0zM42.7 24.9c-.1-.1-.1 0-.3 0v.3c.1 0 .3-.1.3-.3zM40.1 22.2c.1 0 .1-.4 0-.4-.2-.1-.2.4 0 .4zM44 19c-.4-.1-.9 0-.7.6.3.5 1-.1.7-.6zm-.1.2c0 .1-.1.3-.4.3 0-.1-.1-.1 0-.3h.4zM44.1 35.5c.6-.7 1.2-1.5 1.6-2.3-.7.6-1.2 1.6-1.9 2.2-.1 0-.4-.1-.6 0 .3.6 1 .7 1.9.7v-.3c.6-.6 1-1.3 1.5-1.9h.3c.1-.1-.1-.3 0-.6-.3 0-.6.1-.7.3 0 .1.1.1.1.3-.6.6-.9 1.3-1.5 1.7 0-.1-.1-.1-.3-.1.6-.9 1.3-1.7 1.9-2.6-.4.3-.9.7-1.3 1.3-.1.6-.4 1.3-1 1.3zM63.2 33.5c1.2-1 2.5-2.2 3.2-3.3-1.2.8-2.5 1.8-3.2 3.3zM40.4 76c.1-1.2.6-2.8.1-3.8-.1 1.3-.4 2.5-.1 3.8zM33.2 21.1c-.7.3-1.5.6-1.9 1 .4-.1 1.2-.6 1.6-.7.2 0 .5-.1.3-.3zM65.2 24.2c.4.1.6.3.6-.1-.3-.3-.6-.2-.6.1zM60.4 41.2c.6-.1.7-.7 1.2-1-.4.1-1 .6-1.2 1zM65.2 28.7c.1-.1.3-.4.3-.7-.9-1-1.7.8-.3.7zm-.1-.4c-.1.1-.3 0-.4 0-.3-.3.1-.6.4-.3v.3zM63.2 26.4c.4-.3 0-.7-.3-.7-.1-.1 0 .5.3.7zM80.1 37.3c.1 0 .3-.6 0-.6-.2.1 0 .4 0 .6zM79.2 43.1c-.1.1 0 .4.3.6 0-.3 0-.5-.3-.6zM72.6 39.9c-.1.4-.7.9-.4 1.5.2-.5.4-.9.4-1.5zM80.2 45.1c.1.3.1.6.4.6.2-.3-.1-.7-.4-.6zM73.2 39.9c-.1.4-.7.9-.6 1.6.5-.3.8-1.2.6-1.6zM33.5 45.4c0 .2 0 0 0 0zM77 39.2c.9 2.2 2.5 3.5 3.6 5.2-1-1.9-2.4-3.3-3.6-5.2zM66 26.1c0 .3 0 .4.3.4.1 0 0-.3 0-.4-.1-.2-.3-.2-.3 0zM65.8 23.5c-.1 0-.3-.1-.6-.1 0 .2.6-.1.6.1zM26.5 27.7c.1-.1.4-.1.4-.4-.2-.1-.4.1-.4.4zM24.5 29.1c.4-.4 1-.7 1.2-1.3-1 .6-1.7 1.3-2.3 2.3.4.1.7-.5 1.1-1zM27 26.4c-.3-.1-.6.1-.3.3.1 0 .3 0 .3-.3zM28.1 24.5c.1.1.4.1.6 0 0-.3-.6-.5-.6 0zM31.5 25.8c0-.1 0-.3-.3-.3 0 .1-.1.1-.1.3.2.1.4.1.4 0zM30 22.3c-.1-.1-.4-.1-.7-.1-.1.1-.3.6-.1.7.5.3 1 .1.8-.6zm-.1.3c.1.3-.1.3-.3.3 0-.3 0-.5.3-.3zM29.6 26.1c1.6 1.3 4.1 1.7 6.1 2.5l-.3.3c.3.9-.1 1.5-.4 2-.1.4-.3.9-.4 1.2 0 .1-.3.1-.3.3v.3c0 .4-.4.7-.4 1 .9-1.2 1.2-2.8 1.7-4.2 0 .1.3 0 .3.1-.6 1.5-1 2.8-1.6 4.2 1-1.2 1.2-3.3 2-4.8v-.4c.4.1 1 .1 1.3.3-.4.1-1 .4-1.2.7.6-.3 1.3-1 2.2-.6-.7.1-1.3.7-1.7.9-.6 1.3-1 2.9-1.6 4.2.7-.9.9-2.3 1.3-3.5.1.1.3 0 .4 0-.1.4-.1.9-.6 1.2.3.4-.4 1.5-.3 2 .3-.3.3-1.2.7-1 0 .4-.3.7-.3 1.2.4-.3.3-.9.9-1 0 .1-.1.3 0 .3 0-.1.1-.3.1-.4 1.3-.7 2.8-1.6 4.2-2.3.1.1.4.1.6 0 .1-.1.1-.4.1-.7-.1-.1-.4-.1-.6-.3-1.5.7-2.8 1.5-4.2 2.2.4-1.5 2.2-1.5 3.1-2.5-1.3.4-2.3 1.3-3.3 1.9 0-.1.1-.3.1-.4.9-.6 1.9-1.2 2.8-1.7-1 .3-1.7 1-2.6 1.5 0-.6.6-.7 1-1 .9-.6 1.6-.6 2.9-.9.7-.1 1.5-.3 2-.3.3 0 .6.1.7-.1-1.9-.4-3.6.4-5.4.4-2 0-3.9-.6-5.5-1.2-1.2-.4-2.3-.7-3.3-1 .2-.3-.1-.6-.5-.4zm13.1 4.2v.4h-.3c-.3-.3-.1-.5.3-.4zm-5.2 2.9c0-.4.3-.6.6-.7-.1.3-.4.6-.6.7zm4.5-3c.1.1 0 .4 0 .6-1.5.6-2.8 1.3-3.9 2-.1 0 .1-.3 0-.4 1.2-.8 2.6-1.5 3.9-2.2zm-3.8 1.3c.1.3-.1.9-.4.9-.2-.4.1-.9.4-.9zm-.7-.3c.1 0 .1-.1.3-.1-.1.3-.1.6-.4.7.3.1 0 1-.4 1 .4-.7.3-2 1-2.5.2.4-.3.7-.5.9zm2.1-2.1c-.7.4-1.3.9-1.9 1.2 0-.1.1-.1 0-.3-.1.3-.4.7-.7.9 0-1 1.3-1 1.9-1.6.3-.2.6-.2.7-.2zm-3.7-.1h.4c0 .4-.1.4-.6.4.3-.1.2-.4.2-.4zM23.5 30.7c1-.7 1.9-1.6 2.8-2.6 0 0 0-.1-.1-.1-1 1-2 1.7-2.7 2.7zM63.9 30.7c-.4.4-.9.9-1 1.5.4-.4.9-1 1-1.5zM64.6 25.2c-.1 0-.1-.1-.3 0-.1 0-.1.3 0 .3.2 0 .3-.1.3-.3zM64.8 22.3c.6 0 .9-.1 1.3-.3-.3-.1-1 0-1.3.3zM23.8 28.1c.3-.3.7-.6.6-.9-.4.6-1.3 1-1.3 1.7.1-.2.4-.5.7-.8zM23.2 29.6c.7-.6 1.3-1.3 2-2 0 .1.1.1.3.1.3-.1.3-1.2-.3-.9-.3 1.3-1.6 1.6-2 2.8zM64.8 21.7c.4 0 .9-.1 1.3-.3-.4 0-1 0-1.3.3zM22.6 29.4c-.1.3 0 .9.4.9.2-.3-.1-.9-.4-.9zM47.1 16.1c.3-.1.7-.7.6-.9-.2.4-.6.6-.6.9zM58 30.4v-.3c-.3-.1-.4 0-.4.3.1.2.2.2.4 0zM58.1 33.8c.1-.1.1-.4.1-.7-.1-.3-.6-.3-.9-.1-.1.3-.3.6-.1.9.2 0 .8 0 .9-.1zm-.7-.7c.3 0 .4 0 .6.1 0 .3-.1.3-.4.3-.2 0-.2-.1-.2-.4zM56.7 30c-.3-.1-.6 0-.6.4.3 0 .6.2.6-.4zM58.3 29v-.1c-.1 0 0-.1-.3-.1 0-.1.1.2.3.2zM59.9 29.6h-.3v.1s.1.1.3 0v-.1zM56.1 25.9c.4-.3.7-.7 1-1.3-.6.3-.9.8-1 1.3zM60.6 28.4c-.1-.3-.6-.1-.6.1h-.1c0 .3.5.3.7-.1zM58.4 32.2c.6-.4 1.2-.7 1.7-1.3-.7.3-1.4.6-1.7 1.3zM57.5 21.4c-.3.3-.9.4-.9 1 .3-.2.8-.5.9-1zM54 31.6c-.1.3.3.6.3.7 0 .3-.6.3-.3.6h.1c.6-.1.6-.6.9-.9 1 .7 1.5-1.2.3-1 0-.3 0-.7-.1-.7-.4.1-1.2.4-.9 1.2-.1-.2-.1 0-.3.1zm1.8-.3c0 .1.1.1 0 .4-.1.1-.4.1-.6 0 0-.4.3-.4.6-.4zm-.6-.6c0 .3-.1.4-.4.4 0 0 0-.1-.1-.1-.1-.3.2-.6.5-.3zm-.4.9c0 .1-.3.3-.3 0h.3z"/><path d="M54.3 31.2c0-.1.1-.1 0-.4-.3-.3-.6.1-.3.4h.3zM54.2 30.2c.7-.6-.7-.6 0 0zM56.7 26.1c.7-.1.9-.9 1.3-1.3-.5 0-1.1.6-1.3 1.3zM56.4 22.2c.6-.3 1-.7 1.5-1.2-.8.1-1.2.6-1.5 1.2zM56.9 20.7c-.4.3-.9.4-1 1 .3-.3 1-.9 1-1zM58.7 32.6c.7-.4 1.3-.9 2-1.5-.7.5-1.4.9-2 1.5zM52.4 33.5c.3 0 .4-.6 0-.6-.1.2 0 .5 0 .6zM52.1 33.9c.4 0 .9 0 1-.3-.2-.1-1-.1-1 .3zM52.7 31.8h-.1s-.1.1 0 .3h.3c-.2-.1-.2-.2-.2-.3zM53.7 34.7v-.3h-.3c.1.3.2.4.3.3zM64.8 30.7s0-.1 0 0c-.7.7-1.6 1.5-1.9 2.3.7-.5 1.3-1.4 1.9-2.3zM52.9 34.5c-.1.1 0 .3-.1.6.3 0 .3-.1.3-.4-.1 0-.1-.2-.2-.2zM60.1 18.8c1 .3 1.5 1.2 2.2 1.6 0 0 .1 0 0 0-.6-1-1.6-2-3.2-1.7.3.1.8 0 1 .1zM54 33.4c.1 0 .1.1.3 0v-.1c-.3-.1-.3-.1-.3.1zM59.7 32.9c.7-.1 1.3-.9 1.9-1.5-.7.4-1.3.9-1.9 1.5zM59.3 32.8c.7-.4 1.2-.9 1.9-1.3 0 0 .1-.1 0-.1-.8.4-1.5.6-1.9 1.4zM59.9 33.4c.4 0 .9-.4 1.2-.6.3-.3.7-.6 1-.9-.4 0-.9.4-1.2.6-.5.3-.8.4-1 .9z"/><path d="M53.2 31.8c.1.1.3.1.6.1.8-.7-.8-1.3-.6-.1zm.4-.5c.1 0 .1.1.1.3h-.3c.1-.1.2-.1.2-.3zM56.2 31.6c.1.1.3.1.4-.1-.1-.5-.4-.3-.4.1zM59.7 34.2c.1.1.6.1.6 0v-.3c-.3-.3-.6-.1-.6.3zM60.3 33.6c.7-.3 1.2-.9 1.7-1.3-.7.5-1.4.8-1.7 1.3zM37.7 35.5c1.6-.9 3.6-2 4.9-2.9-1.7.9-3.4 1.8-4.9 2.9zM42.5 31.9c-1.3.6-2.8 1.3-3.9 2-.4.3-.9.4-1 .9 1.6-1 3.2-1.9 4.9-2.8 0 0 .2 0 0-.1zM49.5 29.7c-.3.3-.7.3-.9.7.5-.1.9-.5.9-.7zM42.3 34.2c.1.6 1 .1.7-.4-.5-.2-.7.1-.7.4zM42.3 33.8c-1 .4-2 1-2.9 1.7.8-.5 1.8-1.1 2.9-1.7zM36.6 29.9c-.3.7-.6 1.6-.9 2.3-.3.7-.6 1.6-.6 2.3.8-1.3 1-3 1.5-4.6.1 0 .1 0 0 0zM36 35c0 .3.9.3 1 0-.1-.2-.7-.2-1 0zM32.7 28.7c.3 0 .3-.1.3-.4 0 0-.1-.1-.1 0-.1.1-.2.1-.2.4zM42 31.6c-1.7.7-3.3 1.6-4.8 2.6 1.5-.7 3.1-1.6 4.4-2.3.2-.1.5-.3.4-.3zM43.7 33.1c0-.2.2-.2 0 0V33h-.1v.1c.1-.2.1-.2.1 0zM43.7 30.9c.1-.1.3-.6.1-.7-.4-.1-1 0-.7.6.2.1.3.2.6.1zm-.1-.6v.3h-.3c0-.2.1-.2.3-.3zM47.2 30.9c.3-.1.9-.7.7-.9-.1.3-.6.4-.7.9zM52.3 30.9c.1.1.6.1.7 0 .1-.1.1-.4 0-.7-.4-.3-1 .1-.7.7zm.6-.5v.4h-.4c-.1-.4.1-.5.4-.4zM44.6 30v-.3c-.1-.1-.4-.1-.4.3.1.2.2.2.4 0zM43.7 29.4c-.1-.1-.4 0-.3.3.3-.1.3-.1.3-.3zM43.7 34.8c.4-.7 1.2-1.3 1.6-2h-.1c-.4.3-.7.9-1 1.3-.3.3-.6.6-.5.7zM45.7 35.8c.4-.1.7-.6 1-.9.3-.3.6-.9.6-1.2-.4.8-1 1.4-1.6 2.1zM51.3 33.4c.1-.1.1-.1.1-.4-.1-.1-.3 0-.4 0 .1.2 0 .5.3.4zM50.1 31.8c.1.3.4.3.7.1 0-.1.1-.3 0-.6-.4.2-.8.2-.7.5zm.6-.2v.1h-.3c-.1-.1.1-.1.3-.1zM50.5 22.2c-.3-.1-.6 0-.6.4.4-.2.8 0 .6-.4zM52.4 27.7c0-.4-1.2-.4-1.2 0 .2.1.9 0 1.2 0zM51.7 30.7c-.3-.1-.6 0-.6.3.3.2.6 0 .6-.3zM51.9 29.7c.4.7 1.5-.3.7-.7-.5 0-.7.1-.7.7zm.8-.3v.3c-.1.1-.4.1-.6 0 0-.3.5-.6.6-.3zM51.1 15.8c-.4 0-.7.1-.9.4.5.1.8-.3.9-.4zM47.2 15.2c-.1.4-.7.9-.7 1.3.3-.4.7-1 .7-1.3zM50 15.9c-.3-.1-.6 0-.6.3.3 0 .4-.1.6-.3zM31.8 28.6c.3-.1.3-.4.4-.7-.3-.2-.4.2-.4.7zM31.5 27.8c-.1.1-.4.7-.1.9-.1-.3.2-.7.1-.9zM27.3 50.7c.1.6.6.7.9 1.2-.1-.7-.5-.9-.9-1.2zM46.6 15.2c-.3.4-.6.9-.9 1.5.3 0 .4-.4.6-.7.2-.2.5-.7.3-.8zM46.3 15c-.3.6-.7 1-.9 1.7.5-.2.6-.9.9-1.7 0 .2 0 0 0 0zM65.1 22.9c.3 0 .6-.1.7-.3-.3 0-.6 0-.7.3zM64.5 61.6c-.3.3-.9.4-.9.9.2-.4.8-.6.9-.9zM31.8 55.8c0 .1-.3 0-.3.3.3-.1.4-.3.3-.3zM46.6 82.5c.7-.6 1.5-1.2 2.2-1.7-1 .3-1.7.8-2.2 1.7zM59 48.8c0-.4.1-1.2 0-1.5-.2.5-.2 1 0 1.5zM31.9 56.3c-.1.3-.6.3-.6.6.2 0 .8-.4.6-.6z"/><path d="M84.4 54.2c-.1-1.3-.7-2.6-1-3.8-.3-1.3-.6-2.8-.7-4.1-.6-2.6-1.3-5.2-1.6-8.1-.1-1.5.7-3.6-.1-4.2-.3-.1-1-.3-1.3-.3-2.5.1-3.5 2.6-6 3.3-.4.1-1 .1-1.5.1-.4.1-.9.3-1.3.3-.7 0-1.6-.1-2.5-.3-.7-.1-1.5-.1-2-.7 0-.4-.1-.9-.1-1.3 1.5-.9 1.9-2.6 1.9-4.8.3 0 0 .6.6.3.4-.3 0-.7 0-.9.4-1 1.3-2 1.3-3.2 0-.7-.1-2-.3-2.6-.4-1.2-2.2-2.2-2.8-3.3-.1-.4-.1-.9-.4-1.2-.3-.4-.9-.9-1.2-1-1.5-.9-3.9-1.5-6-1.3-1-.3-1.7-1.2-2.9-1.3-.4-.1-1 0-1.3-.1-.4-.1-.7-.6-1.2-.7-.3-.1-.7 0-1 0-.3 0-.6-.1-.9-.3-.7-.1-1.5 0-2.2-.1-.7-.1-1.2-.7-1.7-1-2-1-6-.7-7.9.1-.6.3-1.2.9-1.7 1-.3 0-.6-.1-.9-.1-1.9-.1-3.8.4-5.5.9-2.8.7-4.8 1.7-5.2 4.8-.3.3-.9.4-1.3.7-.6.4-.9 1.6-1.3 2.5-.3.4-.7.6-1 1-.9 1.3-2 3.6-1.9 5.8.1 1 .7 1.6 1.3 2.3.9 1 1.6 1.5 3.3 1.3-.3 2.3-.4 4.7-.9 7-1 .9-1.2 1.9-1.3 3.8-.1 1.3-.3 2.5-.1 3.5.1.4.4.7.6 1 0 .6-.1 1.3-.3 2-.4 4.8-1 9.9-1.3 14.5-1.3.6-1.2 2.3-1.3 4.5 0 .7-.1 1.7-.1 2.5.1.7.6 1 .7 1.6.1.9-.1 1.9-.1 2.8 0 1.7.1 3.5.7 4.5.3.4 1.3 1.3 1.9 1.6 1 .6 2.2.9 3.3 1.3 3.6 1 7.9 1.9 12.1 2.3 6 .4 12.5.3 17.7-.7 1.6-.4 3.5-.7 5.2-1.2 1.6-.4 3.3-.9 4.7-1.6.6-.3 1.6-1.2 1.9-1.6 1-1.6.9-4.4.7-7 2.2-1.6 4.7-2.8 6.8-4.4.7-.6 1.6-1 2.2-1.6.7-.7 1.3-1.7 2-2.8s1.3-2 1.7-3.2c.9-2.6 2-5.5 1.5-8.5zm-1.3-2.1c-.6-.7-.9-1.6-1.5-2.3.4 1.3 1.3 2.2 1.7 3.5-1.3-2.2-3.1-4.2-3.5-7.4.7 1 1 2 1.7 3.1.7.8 1.5 1.7 1.6 3.1zm-6.8 8.4c-.1 0-.1 0-.3.1-.1-.3 0-.7.1-.9.3.3.2.6.2.8zm-.2 6.7c.4 0 .4.3.6.6-.4 0-.6-.3-.6-.6zm.6 1.2c-.1.1-.3-.1-.4-.3.3-.1.4.2.4.3zm-2.9.7c-.6 1-1.9 1.5-3.1 2v-.4c.7-.3 1-.9 1.9-1 0-.3.4-.4.6-.7.4-1.7-1.7-1.5-1.9-.3-.3 0-.4.3-.7.3 0-.3 0-.7-.1-1 .9-.4 1.9-1.3 3.1-.7.1.3.1.6.3.9 0 .3-.3 0-.3.3 0 .1.3 0 .3.3v.3c-.1.1-.3-.1-.4 0-.1 0 .2-.1.3 0zm-2 .3c-.4 0-.7.3-1 .3.1-.1.8-.7 1-.3zm-1 0c0-.4.4-.4.7-.6 0 .5-.5.5-.7.6zm0 .7c.3-.3.9-.4 1.5-.6-.5.4-1.1.5-1.5.6zm.8 0c-.1.2-.7.2 0 0zm.9-1.8c.3 0 .1.6 0 .6-.4.1-.1-.5 0-.6zm-.6-2.8c.7-.4 1.7-.6 2.3-1.2.4.4.4 1.3.6 1.9-.3 0-.4-.1-.7-.3.1.3 1 .4 1 1-.3.1-.6-.1-.9-.3.3.4 1 .4 1 1-.9-.1-1.3-.7-1.5-1.7-.2-.3-.8-.4-1.8-.4zm2.3-1.9c0 .1.1.3.1.4-1.2.7-2.6 1-3.8 1.7-.3 0-.3-.3-.4-.3 1.4-.6 2.8-1.1 4.1-1.8zm-4.2.7c.1-.4.1-1 .6-1.2-.1.3-.1.7-.3 1 0 .1-.1.2-.3.2zm.8-.1c.1-.3.1-.7.3-1 .1.1-.1.7-.3 1zm.4-.2c.1-.3.1-.7.3-1 .1.2 0 .9-.3 1zm.4-.3c.1-.4 0-1 .6-1-.1.3-.1 1-.6 1zm1-1.3h.1c.1.3-.1 1-.4 1-.1-.2.2-.7.3-1zm.9.5c-.1.1-.4.1-.6.3-.1-.3.3-.6.3-.9.1-.1.3 0 .3-.1.2-.1-.1.4 0 .7zm.3-1c.1 0 .1.7 0 .7 0-.3-.1-.6 0-.7zm.9 2.3c.1 0 .1-.1.3-.1.3.7.6 1.6.7 2.5-.9-.2-.7-1.5-1-2.4zm1.3 3.3c-.3 0-.6-.3-.6-.7.3.1.6.1.6.7zm-1-3.9c-.1-.1-.1-.3-.3-.4.1 0 .1-.1.4-.1.1.1 0 .3.1.3.1.1-.1.1-.2.2zm-.3-1.7c0-.4 0-.6.3-.7.1.2.1.7-.3.7zm.1 1.7c0 .1-.1.1-.3.1 0-.1-.1-.3-.1-.4.1 0 .1 0 .3-.1.1.1 0 .4.1.4zm-.6-1.3c-.1-.1-.1-.7.1-.7.2.1.2.7-.1.7zm.3 5.2c.4.3 1 .4 1.3.9-.4.1-.7-.4-1.2-.4-.1-.2-.2-.2-.1-.5zm1.2.2c.3.1.4.1.6.6-.5-.2-.6-.3-.6-.6zm.3-.9c-.3-1-.6-1.9-.9-2.9.1 0 .1-.1.4-.1.3 1 .7 2 .9 3.2-.1-.1-.3-.2-.4-.2zm-.4-3.5c0-.1-.1-.3-.3-.3.3-.3.6-.3.7-.6.1.1.1.3.3.6-.3-.1-.5.2-.7.3zm.1-2.9c.1.4 0 .7-.3 1-.3-.4 0-.9.3-1zm-6.4 2.3c-.4-4.2-.7-8.4-1.2-12.4.6-.9 1.2-1.9 2-2.9.3-.4.9-.7 1.2-1 .9-.9 1.7-1.7 2.9-2.5 1.2-.6 2.5-.6 3.3.1.7 1.2 1.2 2 1.3 3.6.3 2.8.1 5.4-.7 7.4-.1.6-.6 1-.7 1.6-1.4 3.2-4.5 5.4-8.1 6.1zm-1.6 14c.4-.3.9-.4 1.3-.7.3-.1 0 .3.1.3-.4.3-.7.7-1.3.7-.1-.2-.1-.2-.1-.3zm-.3-1.3c.4-.3.9-.4 1.2-.7.1 0 .1.1.1.3-.3.4-.9.6-1.3.9.2-.4 0-.4 0-.5zm.6-6c.1-.1 0 .4 0 .6v-.6zm.1 3.7c.1.1.1.4.3.6-.1 0-.3.1-.4.1 0-.1 0-.4-.1-.4.1-.2.2-.2.2-.3zm.2 1.3c.1.1.4-.3.4 0-.4.1-.9.4-1.3.7-.1-.6.7-.3.9-.7zm.1-.8V73c.1 0 .1 0 .3-.1.1.1.1.3.1.6-.1 0-.1 0-.4.1zm.5 1.6c.1.1.1.3.1.4-.4.3-.7.4-1.3.6 0-.5.7-.5 1.2-1zm.1-.7c0-.1.1-.1.3-.3 0-.1-.3 0-.3 0 .1-.1.3-.1.4-.3v.7c-.1 0-.1.1-.3 0-.1.2.1-.1-.1-.1zm.2 2.2c-.1.7-.9.7-1.3 1-.2-.6.8-.9 1.3-1zm-.5.7c.1 0 .3-.1.4-.3 0 .9-.9.4-1.3.9 0-.1.6-.4.9-.4v-.2zm-.1.6s-.4.4-.6.4c0-.3.3-.4.6-.4zm.7-.1c-.1.7-.9.7-1.2 1.2-.4-.7.8-1.1 1.2-1.2zm-.1-2.8c0-.1.1-.1.3-.3.1.1.1.4.1.6h-.3c-.1 0-.1-.2-.1-.3zm0-1.9c-.2-.1-.2-.3-.2-.6.1 0 .1 0 .1-.1.1 0 .1.3.1.6.1 0 .1.1 0 .1zm-4.3-3.8c-2.5.4-5.1 1.3-7.6 1.7 0-.1 0-.4-.1-.6-.4 0 0 .7-.3.6-.3 0-.1-.4-.3-.6 3.3-.3 6.3-1 9-1.9.1 0 .1.1.1.1 1-.9 2.6-1 3.6-1.9-.4 1.7-2.5 2.2-4.4 2.6zm2.8.7c0-.1-.1-.4 0-.7h.1c0 .5-.1 1.6-.1.7zm-.7 3.1c-.1-.4-.3-1.3-.1-1.9-.1.7.2 1.3.1 1.9zm-.8.3c-.2-.4-.1-1.5-.2-2.3 0-.4-.1-.9-.1-1.2.1 0 .3-.1.4-.1.3 1 .1 2.3.3 3.3-.4-.7-.1-2.3-.6-3.2-.2 1.2.2 2.5.2 3.5zm.5-3.6c.3.3.1.9.1 1.3-.1-.5-.1-.9-.1-1.3zm-3.9 3.9c0 .4.3.9-.1.9-.3-1.3-.3-2.8-.6-3.9 1-.1 1.9-.4 2.9-.6 0 1 0 2.3.3 3.2 0-.9 0-2.3-.1-3.2.3 0 .3-.1.6-.1 0 1.3 0 2.5.1 3.6-1 .3-1.9.7-2.8 1 0-.9 0-1.9-.3-2.8-.2.4-.2 1.3 0 1.9zm-.6 1.1c-.1 0-.3.1-.4 0-.1-1.2-.3-2.8-.4-3.9.1 0 .3-.1.6 0 0 1.2.2 2.8.2 3.9zm-6.9-5c-.1-2.6-.4-5.2-.9-7.7-.1-.7-.1-1.6-.7-2 .9 2.6 1.2 6.4 1.5 9.7-.4 0-.9.1-1.2 0 .3-2.2-.1-4.7 0-6.7 0-.1.1-.3.1-.1-.4-.4-.4.4-.4.6 0 .4.1.9.1 1.3.1 1.7-.1 3.5 0 4.9h-.4c-.3-.4-.1-.7 0-1.2.1-2.9-.9-6.5 0-9-1.5 2.5 0 6.8-.3 10.2-.7 0-1.5.1-2.2.1-.1-5.8-.6-11.5-.6-17.5.9-.1 1.6 0 2.5-.1 0 3.5 1.2 5.8 1.7 8.7-.3-2.9-1.6-5.2-1.6-8.7.3 0 .7-.1 1-.1-.4 3.5 1 6 1.6 9.2.1.6.3 1.9.7 1.9.7 0 .4-1.3.7-1.3 0-3.8-1-6.4-1-10 .6 0 1-.1 1.6-.1.4 5.8 1 11.5 1.6 17.3-1 .3-2.3.6-3.8.6zm1.4 1.3h-.6c0-.1-.1-.4-.1-.6.3 0 .3-.1.6 0-.2.3-.1.4.1.6zM48.4 63c-.1 2.2.3 5.2-.1 7.6h-.4c-.3-.9-.1-2-.1-3.2 0-.7.3-2.9-.3-3.1-.3 0-.4.6-.6.7-.3 1.5.1 3.8 0 5.4.3-.9.3-2 .3-3.2 0-1-.1-2.2.3-2.9.3 1.7 0 4.1.1 6.1h-1.5c.1-1.2.1-2.5.3-3.6 0-1.2 0-2.6.4-3.5.3-.9 1.2-1.2 1.3-1.9-.4 0-.6.6-.9.9-.3.3-.6.6-.7 1-.4.9-.3 2.3-.4 3.5 0 1.3-.1 2.6-.1 3.6h-1c.1-5.7 0-11.2 0-16.9-.6 5.4 0 11.6-.4 16.9-.5-2.4-.6-5.2-.6-7.8 0-1.3 0-2.8.1-4.1.1-1.9.4-3.6.3-5.7h1c.3 2-.6 6 .3 7.6.4.9 1.6.7 1.7-.4-.4.3-.3.7-.9.7-.7 0-.9-1-1-1.6-.1-1.9.1-4.8 0-6.3h.4c.3.3 0 1 0 1.3v2.6c0 .7-.1 2 .6 2 .6 0 .7-1.9.7-2.6v-3.2c0-.3.4-.1.7-.1 0 1.6-.3 3.2-.1 4.9.3-1.5.3-3.2.4-4.9h1.5c0 5.5.1 11.9.6 17.5-.6 0-1 .1-1.6.1-.2-2.4-.2-5.1-.3-7.4zm-6.1-10.2c.1 0 .1.1.3 0 .3 1.3 0 3.3 0 4.8.4-.6.3-1.5.3-2.2 0-.9.1-1.6.1-2.5.3-.1.7 0 1.2 0 0 2.6-.3 5.2-.3 7.9 0 3.2 0 6.5.3 9.6-.6 0-1-.1-1.7 0-.1-5.5-.4-11.9-.2-17.6zm-.2-4.3c0 1-.1 1.9 0 2.8h-.6c.1-1.2.1-2.2.1-3.5.1 0 .3-.1.4-.3-.1.1.3.7-.1.9.1.1.2.1.2.1zm-.7 21.9c-.4 0-.3-.6-.3-.9 0-1-.1-2.3-.1-3.3-.3 1.2-.1 2.8-.1 4.2-.3 0-.7 0-1-.1-.1-1.3 0-2.6-.3-3.8-.7.7-.3 2.6-.6 3.6h-.3c-.1-1.9.4-4.1 1.2-5.5-1 1-1.2 3.3-1.5 5.5-1.2 0-2.2-.3-3.3-.4.3-3.5.6-7.3.4-11.1-.3 3.8-.3 7.7-1 11.1.1-5.7.6-11.6 1.2-17 0-.3.6 0 .7 0-.3 3.3-.4 8.1-.1 12.1 0 1.2 0 3.2 1.2 3.1.7-.1.9-2.2 1-3.1-.4.9-.4 2-1 2.8-.9-.1-.7-1.2-.9-1.9-.3-2.8-.3-6.4-.1-9.5 0-1.3-.1-2.5.3-3.5.3.1.1.6.1.7 0 1.9-.3 4.1-.3 6.4 0 .9.1 1.6.3 2.6 0 .7 0 2.3.6 2.3.6.1.7-1 .7-1.6v-2.6c0-1 .3-2.2.6-3.2.3-1.6.3-3.1.3-4.7.3 0 .4.1.6 0-.3 3.2-.4 6.4-.9 9.6.7-2.8.7-6.4 1-9.6.3 0 .9 0 1.2.1 0 3.9-.1 8-.1 11.6.6-3.5.3-7.9.4-11.6.3.1.1.4.1.6 0 4.1.1 9.2 0 13.5 0 1.3.1 2.5 0 3.6zm-2.1-.3c-.3-1 0-2.5 0-3.5 0 .7.1 1.6.1 2.3.1.7.2 1.1-.1 1.2zM34.1 62c0 .4-.4.7-.6.7.1-1.3.1-3.1.3-4.5-.4 1.5-.4 3.2-.6 4.9-.1 1.2 0 2.3-.4 3.1 0 .3.3-.3.3 0-.1.7-.1 1.6-.3 2.8.6-.9.1-2.6 1-2.9 0 1.2-.3 2.2-.3 3.3-.9 0-1.5-.1-2.3-.3-.1-.1.4-.4.4-.7.9-2.5 1-6.4 1.6-9.3-.9 3.1-.7 7.1-2 9.6-.3.1-.7 0-.9.3-.9-.9-.9-2.6-.9-4.7.1-4.4.4-8.6.7-12.8v-.1c.3 0 .4.1.6.1-.4 1.7-.6 3.8-.7 5.8-.1 3.1-.9 7.1 0 10.2 1 .3 1.5-.7 1.6-1.6.1-1.2.3-2.3.4-3.5.6-3.3 1-7 2-9.7-1.3 2.8-1.6 6.7-2.3 10.2-.1.6-.3 1.2-.3 1.7-.1 1-.1 2.2-1 2.5-.3-.1-.1-.6-.3-.9 0-.1-.3-.3-.3-.4-.1-3.2.3-6.3.4-9.5.1-1.7.3-3.3.7-4.8 0 .9-.3 2-.3 3.2-.1 1.7.1 3.5 0 5.2 0 1.2-.4 2.3-.3 3.3 0 .1 0 .1-.1.1.1.3-.4 2.2.3 2.2.6.1.6-1.2.6-1.5.3-1.7.7-3.9.9-5.4.3-1.3.3-2.6.6-3.6.3-1.2.9-2 1-3.2.3 0 .4 0 .7.1 0 2.3-.1 5.2-.3 7.7 0 1 .1 1.7-.4 2.3.2.4.5 0 .5.1zm-.6 3.3c0-.6.1-1 .4-1.3.2.6.1 1.2-.4 1.3zm-.1.8c-.1-.4.3-.6.4-.9.3.4-.3.6-.4.9zm0-1.8c-.1-.4.4-.7.6-1 .1.6-.5.7-.6 1zm.1-.7c-.1-.4.3-.7.6-1 .2.6-.4.7-.6 1zm-8.7 1.7c.1.3.4.6.3 1-.3-.2-.6-.5-.3-1zm.1 1.5l-.4-.4c0-.1.1-.1 0-.3.2.3.4.3.4.7zm-.1-2c.3.1.4.4.3.7-.2-.2-.3-.3-.3-.7zm-.4-3.2c.3.4.9.9.6 1.6-.3-.5-.9-.9-.6-1.6zm-.2-1.9V59c.1 0 0 .3.1.3-.1-.1.1.7-.1.4zm3.4-7.1c-.1 0-.1-.3-.1-.4.1-.2.1.1.1.4zm0 .8l-.4-.4c0-.1.1-.3.1-.4.3.1.3.4.3.8zm-.2 1c-.3-.3-.7-.6-.4-1.2.4.4.6.7.4 1.2zm0 1.1c-.3-.3-.7-.6-.6-1.3.3.1.8.5.6 1.3zm-.6 6.8c-.3-.1-.4-.6-.3-1 .1.1.1.3.4.4-.1.2-.2.3-.1.6zm-1.6.6c.4.1.4.6.3 1-.3-.2-.3-.6-.3-1zm.2 1.9c-.3-.1-.4-.6-.3-1 .3.2.4.5.3 1zm0-2.7c.3.1.4.4.3.7-.2-.1-.5-.2-.3-.7zm.7-5.9c-.3-.6-1.2-1-.9-2 .5.5 1.3 1.1.9 2zm-.7-3.1c.3.7 1.3 1.2 1 2-.4-.5-1.3-.9-1-2zm.6 4.1c-.4-.4-1.2-1-.9-2 .4.6 1.2 1 .9 2zm.1 1.6c.3.4 1 .7.7 1.6-.3-.3-.6-.7-.7-1-.1-.3 0-.5 0-.6zm-.3 1.5c.3.1.4.6.3.9-.3-.2-.4-.5-.3-.9zm0 2c-.3-.1-.4-.7-.1-1.2.3.3.3.6.1 1.2zm.2-4.2c-.3-.6-1.2-.9-.9-1.9.3.7 1 1 .9 1.9zm-.2.8c-.3-.6-1.2-.9-.9-1.9.3.8 1.1 1.1.9 1.9zm-.1.8c-.4-.4-.9-.7-1-1.6.4.6 1 .8 1 1.6zm-.2.7c-.3-.6-1-.9-.9-1.7.3.5 1.2 1 .9 1.7zm.3 3.2c.4.1.3.6.1.9-.2 0-.2-.5-.1-.9zm.2-.6c.1.1.1.3.1.6-.1-.1-.3-.4-.1-.6zm.1-1.1c.3.1.1.7 0 .9-.3-.2 0-.7 0-.9zm-.1-2.2c.3.4.9.7.7 1.5-.3-.5-.9-.9-.7-1.5zm.7 3.9c-.4-.1-.3-.7-.3-1.3.4.3.3.9.3 1.3zm-.6-5.7c.4.4 1 .9.7 1.6-.1-.6-.7-.7-.7-1.6zm.2-1c.3.6 1 .9.7 1.9-.3-.6-1-1-.7-1.9zm.1-1c.3.4 1 .9.7 1.9-.3-.6-1-1-.7-1.9zm.3-.9c.3.4.9.7.6 1.6-.3-.4-.9-.8-.6-1.6zm-1-4.6c.4.7 1.3 1.3 1.3 2.3-.5-.7-1.5-1.3-1.3-2.3zm1 3c-.4-.7-1.2-1.2-1.2-2.2.5.8 1.5 1.4 1.2 2.2zm-.2.9c-.4-.7-1.3-1.2-1-2.2.3.7 1.2 1.2 1 2.2zm-1.1-4.7c.1.3.1.4 0 .7-.1 0-.1-.3-.3-.3-.1.4.4.7.1 1.2-.6-.3-.1-1.3-.1-1.9.1.1.3 0 .3.1.1.4 0 .1 0 .2zm-.2 2.7c-.3 0-.3-.4-.3-.9.3 0 .3.4.3.9zm-.1 1c-.3-.1-.3-.7-.1-1 .1.1.1.5.1 1zm-.2 1.1c-.1 0-.1-.1-.3-.3 0-.3 0-.6.1-.7.4.2.2.5.2 1zm-.1 1.1c-.1 0 0-.1-.1-.1.1.3.1.7 0 1.2-.1 0 0-.3-.3-.1.1-.7.1-1.3.3-2 .2-.1.1.5.1 1zm.6 5.9c-.3-.6-.9-.9-.7-1.9.2.6 1 1 .7 1.9zm-.2.7c-.3-.4-.7-.7-.7-1.5.3.5.9 1 .7 1.5zm0 4.1c.3.1.4.4.4.9-.1-.1-.3-.3-.4-.6v-.3zm.2-.7c.1.1.4.3.3.7-.2 0-.3-.3-.3-.7zm.3-.9c.3.1.3.6.3.9-.5-.2-.5-.4-.3-.9zm.3 2.5c.1.1.4.3.3.7-.3-.1-.5-.3-.3-.7zm0-.6c0-.3.1.1.3 0 0-.4-.4-.6-.1-1 .4.3.1 1.2.1 1.7-.2-.3-.5-.5-.3-.7zm.3-2.2c.3.3.4.6.3 1-.3-.1-.5-.5-.3-1zm.1-.7c.1.1.3.3.3.7-.3-.1-.4-.4-.3-.7zm1.3-6.2c0-1.3.1-2.5.1-3.9 0-.3.1 0 .3 0-.4-.4 0-2.3-.6-2-.4.3-.9-1-1.2-1.3 0 .7.7 1 .9 1.7-.3-.1-.6-.6-.9-1-.3-.3-.7-.7-.6-1.3 1 .4 1.9.9 3.1 1.2-.4 6-1 11.6-1.6 17.6-.1-.1-.4-.1-.6-.1.4-3.8.5-7.6 1.1-10.9zM27.6 44c-.1 0-.1-.1-.3-.1 0-.3.3-.4.4-.3 0 .2-.1.1-.1.4zm-1.5 3v-.3c0-.7-.1-1.3 0-1.9-.7.4 0 1.9-.3 2.9.1 0 .1-.1.1-.4.1.1 0 .6 0 .7-.3-.1-.4-.1-.6-.4.1-1.3 0-2.8.1-4.2.4.1.6.3 1 .4-.1.7-.3 1.7-.4 2.5.3.3.3 1 .1.7zm.2-6.2c.4.6.7 1.2 1.2 1.6-.7 0-1.1-.8-1.2-1.6zm.1 1.1c-.1-.1-.3-.1-.3-.4.2 0 .3.3.3.4zm.3-5.3c.3.1.1.6.1.7-.3-.2-.1-.5-.1-.7zm.1-1.4c.3.1.3.7.1 1-.4.1-.1-.4-.1-1zm1.2.5c.1.1 0 .4-.3.4 0 .4.6.4.6 1-.4-.4-1-1-.7-1.9.1 0 .1.1.1.1 0 .1-.1.3-.1.4.1.1.3-.2.4 0zm2.6.3c.1 0 .3.1.4.1 0 .1-.3.1-.3.3-.1 0-.1-.3-.1-.4zm.9.4c-.3.1-.6.3-.9.6-.1-.3.6-.9.9-.6zm.1.2h.3c-.4.3-.9.6-1.3.7.2-.5.7-.3 1-.7zm-.3.7c.3-.1.6-.4.9-.6-.3.4-1.3.9-1.7 1 .1-.3.6-.3.8-.4zm1.5-.3c-.7.4-1.5.9-2.3 1.2.7-.5 1.4-1.2 2.3-1.2zm.4.1c-.6.6-1.7.9-2.3 1.5.7-.1 1.5-.7 2.2-1 .1.6-1 .6-1.2 1h-.4c.1.1.7.1 1.2.1-.3 1.5-.6 3.5-.7 5.4-.7-.1-1.2-.3-1.9-.4.3-1.6.1-3.6.4-5.2.8-.5 1.7-1.2 2.7-1.4zm2.1.2c-.4.4-.9.9-1.5 1.2.3-.6.7-1.1 1.5-1.2zm-.8 0c-.1.3-.4.3-.6.6-.1-.3.4-.5.6-.6zm1.5.9c0 .1-.1.3-.1.4 0 .3.1 0 .1.1-.1 1.7-.3 3.8-.3 5.5.3-1.7.4-3.8.6-5.7.4-.4.7-1.2 1-1.7-.4.4-.7 1-1 1.6 0-.7.4-1.6 1.3-1.7.3.3-.1.6-.4.9-.3.3-.4.7-.6 1 .3-.3 1.5-.3 2.2-.1.1.1.1.1.1.3 1-.3 1.5 1 2.8.9-.3 1.9.1 4.5-.3 6.1-.3 0-.1-.4-.1-.7 0-1.3 0-2.8-.1-4.1-.3 1.3-.1 3.2-.1 4.8-.4 0-1.2-.1-1.6-.1-.1-1.7.1-3.8 0-5.5 0-.4 0-1-.4-1.3-.4 0-.9.3-1 .6-.6 1.6-.6 3.8-.9 5.7.6-1 .4-3.1.7-4.4.1-.9.3-1.6 1.2-1.6.3 1.5.1 3.8.1 5.4 0 .3.1.9-.1 1-.3-.1-.1-.6-.1-.7 0-1.5.1-3.1 0-4.5-.6-.1-.9.4-.9 1-.1 1.3-.3 2.6-.3 4.1-.7-.1-1.6-.3-2.3-.4.1-1.3.1-3.1.3-4.5-.1-1-.4-2 .2-2.4zm-.3-.3c-.1-.3.1-.6.3-.9.3.1-.3.6-.3.9zm.2.3c-.2-.2.1-.3.1-.5.1.2 0 .5-.1.5zm.8-1.4c0 .1-.1.3-.3.4 0 .1 0-.4.3-.4zm1.5.9c.1 0 0 .3.1.3h-.6c.1-.3.4-.6.6-.9.1.1-.1.6-.3.6-.1.3.2.2.2 0zm-1.2.5c.4-.4.6-1.5 1.3-1.3-.4.4-.6 1.1-1.3 1.3zm4.8-1.2c0 .6-.6.7-.9.9-.4.3-.7.6-1 .7.3-.9 1.2-1.2 1.9-1.6zm-.6 0c-.3.3-.7.4-1 .7 0-.4.3-.9 1-.7zm.6.9c-.6.3-1.2 1-1.7.7.4-.4 1.2-.7 1.6-1.2.1 0 0 .5.1.5zM40.5 39c.3-.3.7-.6 1.3-.7-.1.4-.9.9-1.3.7zm1.2-.1v.6c-.1-.1-.4-.1-.7-.3.2-.2.5-.3.7-.3zm-1.9-1.6c-.1 0 0-.3 0-.3h.3c0 .1-.3.1-.3.3zm.1 0c.3.3-.3.7-.6.9 0-.3.3-.6.6-.9zm-.1 1v.3h-.3c0-.3.1-.3.3-.3zm-.7-.7c0-.4.1-.6.6-.7-.2.4-.2.7-.6.7zm.2.3c0 .1-.1.3-.1.6-.1 0-.3-.1-.4-.1.1-.2.3-.5.5-.5zm-.5-.6c.1.3-.1.6-.4.7-.1-.1.2-.6.4-.7zm-.3 0c.1-.1.1-.3.1-.4h.3c0 .2-.1.4-.4.4zm.1 8.1H38c0-1.7.1-3.3.4-4.8.1 0 .1-.1.3-.1.1 1.4-.2 3.2-.1 4.9zm-2.5.3c2.3.3 4.7.4 7.1.6h.4c8.1 0 16.7-.6 22.1-3.6.1 0 0 .3.1.3-1.9 1.2-4.2 1.9-6.5 2.5 0-.1.3-.1.3-.3-.4 0-.7.3-1 .4 0-.4-.6.1-1 .3-.7.3-1.7.3-2 .7-.1 0 0-.3-.3-.3-.4.4-.7-.3-1.3 0-.1 0-.1-.1-.1-.3-.1 0-.1.1-.3.3-.1 0-.3 0-.3-.1-.1 0-.1.3-.3.3-4.2.1-9.2.3-13.2-.1-.1 0-.1.1-.4.1-.1 0-.1-.1-.3-.3-.1.1-.4.3-.7.3-.1-.1-.1-.1 0-.3-.4 0-.4.1-.9.1 0-.1.1 0 .1-.1-.3-.1-.6.1-.9.1-.4-.4-1 .4-1.5.1.1-.1.6-.1.7-.3-3.1-.6-5.8-1.3-8.3-2.3.4-.6 1 0 1.5.1s1.2.4 1.6.6c.7.1 1.7.1 2.3.4l.3.3c.1 0 .3-.1.3-.1.7.2 1.7.6 2.5.6zm6.7-7.1c.1 0-.3.4-.3.7-.1-.1.2-.4.3-.7zm.3-1.3c.3.3-.3.7-.4 1 0-.3.3-.7.4-1zm.5.1h.1c.1.3-.1.6-.3.9-.3.6-.6 1-.9 1.5 0 1.9 0 4.1-.1 6-.3-.6-.1-1.5-.1-2 0-1.3 0-2.6.1-3.9.4-.9.9-1.6 1.2-2.5zm.4 1.5c.1-.1.1-.4.3-.6.1-.1.1-.6.3-.4 0 .3-.1.7-.4 1.2-.1.4-.4.9-.6 1.2.1.1.3-.3.6-.3v.3c.3-.1.4-.3.9-.1-.3.3-.7.4-.9.9.4 0 .7-.6 1.2-.9.6-.3 1.3-.1 1.7-.4-.9.6-1.7 1-2.3 1.9 1-.4 1.7-1.3 2.6-1.9-.4-.1-.9.1-1.3.3 0-.3.3-.1.3-.3h-.3c.1-.4.4-1 .6-1.6.9-.1 1.7-.6 2.5-.7.1.1 0 .6 0 .9-.6.4-1.2.7-1.6 1.3.6-.3 1-.9 1.6-1 0 .7-.9.6-1 1.2.3 0 .7-.4 1-.7.1.1.1.6 0 .7 0 .1.1 0 .1.1 0 2.2.1 4.4 0 6.4H47c-.1-1.2 0-2.5-.3-3.5-.9.6-.3 2.5-.7 3.5-.3-1-.1-2.8 0-3.9.4-.1.7-.6 1-.6.1.4.1.9.3 1.5.1-.4 0-1.2-.1-1.6.1-.3.6-.3.7-.6-.3-.1-.4.3-.7.3 0-.3-.3-.3-.3-.6.4-.1.7-.6 1.2-.7-.6 0-1.2.7-1.9.7-.3.3-.6.7-.9 1 .1.1.4-.3.4-.1-.1 1.5-.1 3.1 0 4.5-.9.1-1.9-.1-2.9 0-.1-1.7 0-3.9-.3-5.7 0-.1.1-.1.3-.1.1-.4.4-.7.7-1.2.1-.4.1-1 .7-1.2-.3.9-.7 1.5-1 2.2.5-.5.7-1.1.8-1.4zm1.6 0c-.1.3-.1.9-.6.9.3-.6.4-1.5 1-1.9-.1.3-.3.5-.4 1zm.7-1h.3c-.3.6-.3 1.5-.9 1.9 0-.8.3-1.4.6-1.9zm-1.6 1.9c-.1-.1.1-.4.3-.7.1-.4.3-.7.6-1h.1c-.4.3-.5 1.2-1 1.7zm.2-.9c-.1.3-.3.7-.7.9.3-.6.6-1.3.9-1.9.1 0 .1.1.3 0-.2.3-.4.5-.5 1zm3-2.3c0-.3.4-.7.6-1.3.1 0 .3.1.4.1-.1.6-.4 1-1 1.2zm1.2-.6c0-.1.1-.3.1-.4h.3c-.1.1-.1.4-.4.4zm-2.2 9.7h-.4c0-1 0-2.2.1-3.1.5.9.3 2.2.3 3.1zm.2-4.6c-.3.1-.6.4-.9.6-.3-.8.9-1.7.9-.6zm9.1-4.7v.3c-.4.6-1.3.6-1.9.9.3-.5 1.2-.9 1.9-1.2zm-.4-.1c0-.1.3-.1.4-.3-.1.3-.3.3-.4.3zm-1 3c0-.1-.1-.1-.3-.1.6-.4 1.3-.9 2-1.2-.4.6-1.2.9-1.7 1.3zm1.7-.9c-.1.6-.9 1-1.5.9.5-.3 1.1-.7 1.5-.9zm-1.2 0c-.4.1-.9.6-1.3.4.7-.4 1.7-1 2.5-1.3-.3.5-.9.7-1.2.9zm-.1-.5c-.4.3-1 .6-1.3.7-.3 0-.3 0-.4.1.7.4 1.5 1 2.6 1 0-.3-.3-.1-.4-.3.3-.1.6-.6.9-.6.1 1.9.3 4.1.4 5.8-1 .1-1.7.4-2.8.6-.1-2.3-.7-4.2-1.5-6-.9.4-.4 2-.4 3.3 0 1 0 2.2.1 2.9-.1.1-.3 0-.6 0 .1-2.5-.1-4.7-.1-6.8.9-.6 1.9-.9 2.9-1.5.1.1-.4.4-.7.6-.3.1-.7.3-.7.6 1.2-.4 1.9-1.2 2.9-1.6.3.9-.5 1-.9 1.2zm1.7-1.3h.3c0 .3 0 .3-.1.4-.2 0-.2-.3-.2-.4zm5.6 2.7c-.1-1-.4-2.2-.6-3.3v-.1h.1c.3.3.1.7.3 1 .3 2 .7 4.2.9 6.4-.7.3-1.6.6-2.5.7-.1-1-.4-2-.6-3.1 0-.1 0-.3.1-.3-.4-.1-.1-1-.3-1.6.6-.1.9-.6 1.3-.7.3 1 .7 1.9.7 2.9.3-.6 0-1.3-.1-1.9-.1-.6-.6-1.3-.1-1.6.1 1.2.4 2.2.6 3.3.5-.2.3-1.1.2-1.7zm.4-3.5h.3c0 .1-.3.1-.3.3 0 0 .2-.3 0-.3zm.7 2.1c-.1.1-.1.3-.4.3v-.1c0-.1.3-.1.3-.3.1-.2 0 .1.1.1zm2.2 1.3c-.3 0-.3-.6-.1-.7.1-.1 0 .4.1.7zm6.4.6c.3 0 .6 0 .7-.3.1 0 .1.1.3.3.1 0 .1-.3.1-.4h.1c.7.7 1 1.7 1.7 2.5-1 .4-2.3.6-2.8 1.6 0-1.9-1-2.5-2.6-2.6.1-.3.3-.6.4-.9h1.7c-.1.4-.4.9-.6 1.3.7-.2.7-1.1 1-1.5zm3.4 2.1c-.6-.9-1-1.9-1.7-2.6 0-.1.3-.1.3-.3.9.6 1.2 1.9 1.9 2.8-.3.1-.4.1-.5.1zm.5.3c.1.1.1.3.3.4H76c0-.1-.1-.3-.3-.4h.4zm-.4.5c-1.3.1-2.3.7-3.2 1.3 0-.4.7-.7 1.2-1 .6-.3 1-.7 1.7-.7.2.1.2.2.3.4zm-7.3 3.9c0-.6-.1-1.2-.3-1.7.1-.3.6-.3.7-.4.6.7 2 .4 1.7-.9.1-.1.3-.1.3-.1-.1-.1-.3.1-.4 0 0-.1-.3-.3-.4-.4.1-.3.6-.3.9-.4 1.2 1.9-.9 3.9-2.3 4.4-.1-.4.4-.4.7-.6.4-.3.7-.6 1-1-.4.1-1 .8-1.9 1.1zm0 1.3c.3 0 .1.3 0 .4v-.4zM68 44c.3-.1.6-.3.9-.4.1.1 0 .4 0 .6-.3.1-.4.3-.7.3-.1-.4-.2-.4-.2-.5zm-1.5 23.2c0-.6.6-.7.9-1 .3-.3.7-.6 1.2-.7 0 0 .1 0 .1-.1 0 0 0 .1.1.1-.7.7-1.5 1.2-2.3 1.7zm2.2-1.1c-.6.4-1 1-1.7 1.2.6-.5 1.1-.9 1.7-1.2 0-.2 0-.2 0 0zm-3.6 2c-.4.1-.7.3-1 .3V68c.4-.1.9-.4 1.2-.7.1.1.1.3.1.6-.1 0-.1.1-.3.1-.2 0 0 0 0 .1zm-6.4-16c.4 3.6.9 7.1 1.2 10.8.1-3.8-.6-7.3-.9-10.9 1-.1 1.7-.4 2.6-.6 0 .9.6 3.1 1.5 1.9.1 0-.1.3 0 .4.4-.6 0-2 .3-2.9.7 2.6.6 5.8 1.3 8.4 0-2.9-.7-5.8-.9-8.6.3.1.3.7.3 1.2.4 2.3.7 4.9.9 7.6 0 .3.1.9-.3 1-.9-1.9-1.2-4.2-2.5-5.5.1.4.4.9.7 1.3.6 1.3 1.2 3.1 1.5 4.5.1.1.1.3.3.4-.1.4.1.7.1 1.3-.4.3-.9.6-1.2 1 .4-.1.9-.7 1.2-.7-.1.3.1.6 0 .7-.1.6-1.2.9-1.5 1-.1-3.2-1-5.5-1.2-8.7.7 1.2 1 2.8 1.3 4.2.1-.7-.1-1.6-.4-2.5-.3-.7-.4-1.7-1-2-.1 2.6 1 5.8 1 8.9 0 .3-.1.1-.1.3.3-.1.3.6.1.7.3 0 .1.3.3.6-.1.1-.3.3-.6.3-.1-1 0-2-.1-3.2-.1-2.5-1-4.9-1.2-7.1-.1-.7 0-1.3.3-1.7-.6 0-.6 1-.6 1.6.1 2.3 1.2 5.1 1.3 7.6-.3 1.2 0 2.6.3 3.8-.1.3-.7.4-.9.7.3 0 .6-.4 1-.4 0 .3.3.6.3.7-1 .1-2 .4-3.1.6-.3-2.6-.4-5.2-.7-7.7-.3-2.6-.7-5.1-.9-7.6v-1c.1.2 0-.4.3-.4zm-1-1.1c.1-.1.4-.1.6-.3 0 .3.1.4.1.7-.3 0-.6.3-.9.1 0-.1.3-.3.2-.5zm0-.5c-.1-.7-.3-1.7-.3-2.6 0-.1-.3-.6.1-.6.3.9.1 2.2.4 3.2.3-.3.1-1 0-1.5 0-.6-.1-1.2-.1-1.6v-.1c.1-.1.3 0 .4 0 .1 1 .1 2.2.3 3.2-.1.2-.4 0-.8 0zm-.9.7h.3c0 .3 0 .6-.3.6.1-.4 0-.4 0-.6zm-10.2 7.5c-.4-.1-.3-1-.3-1.6 0-1.3 0-2.6.1-3.9V53h.7c0 2 .1 4.2-.5 5.7zM43 52.1c0-.1 0-.1 0 0v-.3c1.6.1 3.2.3 4.9.3.1 0 .1 0 0 0-1.3.3-3.5 0-4.9 0zm1.1-.9c.1-.9.1-1.9.3-2.8.3 0 .3-.1.6-.1-.1 1.2.1 2.3 0 3.2h-1.3c.1-1 .1-1.9.1-2.9.3 0 .4 0 .6-.1 0 .6-.5 1.9-.3 2.7zm.2-2.9c.6-.4 1.2-.9 2-1-.7.3-1.4.9-2 1zm.1-.4c-.1 0-.1-.1-.1-.1-.1.4-.4.6-.7.6V48c.7-.3 1.2-.7 2.2-.7-.5.3-.9.5-1.4.6zM43 48c.4-.4.9-.9 1.6-.9-.5.5-1 .8-1.6.9zm0-.2c0-.1-.1-.3 0-.4s.6 0 .7 0c-.1.1-.4.2-.7.4zm0 .5c.1 0 .3-.3.4-.1-.1 1-.3 2.3-.1 3.3-.7.1-.4-.6-.4-1 .1-.7.1-1.6.1-2.2zm1.9 3.2c.1-1 .1-2.2.1-3.3.7-.3 1.2-.9 2.2-.9-.7.4-1.5.7-2 1.2 1.2 0 1.7-1.2 3.2-1.2-.6.4-1.3.7-1.9 1.2.7 0 1.7-.4 2.8-.1.1 0 0 0 0 .1 1-.3 2.3-.3 3.5-.4 0 1 .1 1.7.3 2.6.1-.3 0-.6 0-.9 0-.7-.3-1.5 0-1.9.3.9.3 2.3.4 3.3-2.7.5-5.7.6-8.6.3zm6.7-3.7c-.3.1-.6.1-1 .1.1-.1.4-.1.7-.3-.3.2.1.2.3.2zm-2.8.1c.6-.6 1.5-.9 2.6-.7-.6.4-1.3.8-2.6.7zm-1.2.1c.6-.3.9-.9 1.9-.7-.6.2-.8.7-1.9.7zm6.1 3.8v.3c-.1 0-.1.1-.3 0-.1-.1.1-.4.3-.3zm-.1-1.3c-.1-.7-.1-1.7-.3-2.5 0-.1.1-.1.1-.1.3 1 .1 2.5.4 3.3-.2 0-.2-.4-.2-.7zm.3-2.6h.1c.1 1 .3 2.3.3 3.3H54c0-1.1-.3-2.3-.1-3.3zm2 3.9c-.1 0 0-.3-.1-.4h.3c-.2.1 0 .4-.2.4zm-.1-.8c-.4 0-.3-.7-.3-1-.1-.6-.3-1.3-.1-2.2v-.1h.1c0 1.1.4 2.4.3 3.3zm-.5.5v.3c-.3.1-.3-.3-.3-.3h.3zm-.5-3.6v-.1h.1c0 1.3.1 2.3.3 3.3-.3-.9-.3-2.2-.4-3.2zm.1 3.6v.3h-.3v-.3h.3zm-.1-.4c-.3-1-.3-2.2-.4-3.3h.1c.1 1 .4 2.4.3 3.3zm-.8.6c.1 0 .3-.1.4 0v.3H54v-.3zm.5.9c.1 0 .3-.1.6 0-.1 2.5.1 4.4.7 6.3 0-1.2-.4-2.3-.6-3.8v-2.3c.1 0 .6-.1.6-.1.3.1.3 1.3.4 1.9.3 1.7.7 3.8.9 5.5.1 1.3.1 3.1-.6 3.6-.6-.6-.4-1.3-.6-2-.4-3-1.9-5.5-1.4-9.1zm1.3-5s.1 0 0 0c.4.9.4 2.3.6 3.3-.5-1-.3-2.3-.6-3.3zm.6 3.6h.1c0 .3.1.4-.1.4v-.4zm0-3.6v-.1h.1c.3.6.3 1.7.4 2.6 0 .3.1.6 0 .7-.3 0-.3-.4-.3-.7-.1-.7-.2-1.6-.2-2.5zm-.2-.9c0-.1.3-.1.3-.3.2.2-.1.3-.3.3zm.7.6c.4 0 .3.4.3.6.1.9.3 1.9.3 2.6-.4-.9-.4-2-.6-3.2zm.5-.3c.1-.3.7-.6 1-.6-.3.3-.7.5-1 .6zm1.1-.8c.3 0 .6-.1.7-.1-.3.1-.6.3-.7.4-.1-.1 0-.3 0-.3zm3.4.1c0 1.2.1 2.2.3 3.3-.3 0-.6.1-.7.3 0 .3.1.4 0 .6-.4.3-.4-.4-.7-.4-.3-.1-.4.1-.6.1-.3 0-.3-.3-.6-.3-.4.1-.1.6-.1 1-.4.1-.3-.7-.6-.9-.1-1-.1-2-.3-2.9 1.2-.4 2.6-.4 3.2-1.3.1 0 .1 0 .1.1-.3.1-.6.1-.6.6.2.2.6-.2.6-.2zm.7-.9c.1.1-.3.3-.4.4 0-.2.3-.2.4-.4zm0-.1c0 .1-.3.1-.3.3-.3-.2.2-.3.3-.3zm-.1.9c-.1.3.3 0 .3.1 0 1-.1 2.2.1 3.1.1-.4 0-1.3 0-2.2 0-.4-.1-.9.1-1 .3.9 0 2.3.4 3.2-.3.1-.7.3-1.2.3.1-1-.1-2.2 0-3.5.3-.3.7-.3.3 0zm.4-.8c-.1-.1.1-.3.1-.4.3.3-.1.3-.1.4zm.3.2c0 .1 0 .4-.3.3-.1-.3 0-.3.3-.3zm1 0h.1c0 1.2.3 2.5.3 3.3-.4-.9-.4-2.5-.4-3.3zm.3 3.9c0 .1-.3.1-.4.3-.2-.4.4-.6.4-.3zm-.3-4.2c0-.3 0-.7.1-.7.2 0 .2.8-.1.7zm0 3.8c-.1 0-.1-.4-.3-.6-.1-.7-.1-1.7-.3-2.5 0-.1.1-.1.1-.1.4.8.4 2.3.5 3.2zm-.6.3c-.1-1-.3-2.3-.3-3.3h.1c0 .9.3 1.9.3 2.8.1 0 .2.3-.1.5zm.2.4c-.1 0-.1.1-.3.1 0-.1-.1-.1 0-.3 0-.1.3 0 .3-.1v.3zm-.3-4.5c.1.1 0 .4 0 .4-.3-.1-.2-.4 0-.4zm.3.3v-.4s.1 0 .1-.1c.2-.1 0 .5-.1.5zm-.6-.6c.1-.1.3-.1.4-.3 0 .1-.1.4-.4.3zm-.1 6c.1.7.3 2.3-.3 2.5-.6 0-.7-1.3-.7-2 .1-.4.5-.4 1-.5zm-1.4-.5c-.1-.1 0-.3-.1-.4 0-.1.1-.1.3-.1.1.1.1.3.3.3 0 .1-.3.1-.5.2zm.5-.9l.4.4c-.1.5-.4-.2-.4-.4zm.6.2h.3c0 .1.1.1.1.3-.3.1-.4 0-.4-.3zm-1.9.9c0 .1-.3 0-.3.1-.1-.1-.1-.3-.1-.6h.3c-.1.3.1.3.1.5zm-.8.3c-.1 0-.3.1-.4 0 0-.3-.1-.3-.1-.6h.4c.1.3.3.3.1.6zm-1.3.2c-.1 0-.1-.3-.3-.6h.1c.1.4.5.5.2.6zm1.8-4.6h-.3c.4-.4 1-.7 1.6-1-.2.4-1 .6-1.3 1zm.6-.9c-.4.3-1.2.7-1.5 1-.1 0-.3.1-.4 0 .9-.4 1.3-1 2-1.3.4 0 0 .2-.1.3zm-1.6.6c-.3.1-.7.4-1 .6.4-.4 1.2-.7 1.7-1 .1 0-.4.3-.7.4zm7.1 6.8c-.4.3-.9.6-1.2.9-.1-.1 0-.3-.1-.4.3-.3.9-.6 1.2-.9.1 0-.1.4.1.4zm1 0c0 .1-.1.1-.3.3-.3-.1 0-.4.1-.6.2 0-.1.3.2.3zm.3-9.4c0-.3-.1-.3 0-.6.9-.3 1.9-1 2.9-.9-1 .5-2 .9-2.9 1.5zm2 .1v.3h-.1V44l.1-.2zm-3.2 21.1c.3-.4.7-.6 1.2-1 .1 0 .1.4.1.6-.4.3-.9.6-1.2 1-.1-.2.1-.4-.1-.6zm1.2-1.2c-.4.3-.7.6-1.2.9-.1-.7.9-.9 1-1.3.2 0 .2.3.2.4zm0-.7c-.4.3-.7.6-1.2.9-.1-.7.7-.9 1-1.3.2 0 0 .3.2.4zm-.2-.7c-.4.3-.9.6-1.2 1-.1-.1-.1-.3-.1-.4.4-.3.9-.6 1.3-.9.2-.1 0 .1 0 .3zm0-.6c-.4.3-.7.6-1.3.9-.1-.1 0-.4 0-.7.4-.1.7-.6 1.3-.7v.5zm-1.3 0c-.1-.1 0-.4 0-.6.4-.3.7-.6 1.2-.9.1 0 .1.4.1.6-.5.3-1 .6-1.3.9zm-.1-1.3c.4-.3.9-.6 1.2-.7.1 0 .1.3.1.4-.4.3-.7.6-1.3.9v-.6zm-.2-1.9c.3-.1.6-.3.9-.6.1 0 .1.1.1.3.1 0 0-.3.1-.4.3.1 0 .6.1.9-.4.1-.7.6-1.2.7 0-.3-.1-.5 0-.9zm-.1-.1c0-.3-.1-.3 0-.6.3-.1.6-.3.9-.6.1.1 0 .4.1.6-.3.1-.6.4-1 .6zm1.2-2.2c.1.1.1.3.1.6-.3 0-.1-.3-.1-.6zm.5-1.3c-.1 0-.1.1-.3.1v-.4c.1 0 .3 0 .3-.1 0 .1-.1.4 0 .4zm0-12.5c.6-.1 1-.3 1.7-.3-.4.3-1.2.4-1.6.7-.1 0-.1-.1-.1-.4zm-.4 12c0-.3.1-.4.3-.4.1.3 0 .4-.3.4zm0 3.2c-.1-.1-.1-.4 0-.6v.6zm0-3.7c-.1-.3.1-.4.3-.3 0 .1-.1.3-.3.3zm.2 5.5c-.4.3-.7.6-1.3.7v-.6c.4-.3.9-.4 1.2-.7.1.1.1.3.1.6zm.2-2.6c-.4 0-.3-.7 0-.9-.1 0-.1.1-.3 0v-.6c.1-.1.3-.1.3-.3.1.6.1 1.5.3 2 0 .1-.1.1-.3.1-.2.1-.2-.3 0-.3zm1.9-15c-.9 0-1.5.1-2 .4 0-.1-.1-.1-.1-.3.6 0 1.2-.3 1.9-.1h.2c.3 0 .2.1 0 0zm-2.4 11c-.1-.1 0-.3-.1-.4 0 0 .1 0 .1-.1.1 0 .1.3.1.4l-.1.1zm-.2-.7c0-.3 0-.4.1-.6.1 0 .1.3.1.4 0 .1 0 .2-.2.2zm0-.9c-.1 0-.1-.4 0-.6h.1c.1.4.2.6-.1.6zm-.1 5.9c-.3.1-.6.4-1 .6v-.6c.3-.1.7-.3 1-.6.1 0 0 .3 0 .6zm-1.5 1c.4-.4.4.1.4.4-.1 0-.1.1-.3.1.1-.2-.1-.4-.1-.5zm-.1-1.6h.1c0 .1.1.6-.1.6.1-.3 0-.3 0-.6zm-.5 8c-.6.3-.9.7-1.5.9v-.6c.4-.3.9-.6 1.3-1 .2.1.2.5.2.7zm-1.4 2.7c-.1 0-.3.1-.4.3 0-.1-.1-.4-.1-.6.1-.1.3-.1.4-.3.2.1.1.3.1.6zm0-1.6c.4-.3.9-.6 1.5-.9v.6c-.6.3-.9.6-1.3.9-.1-.3-.2-.4-.2-.6zm.1.8c.4-.3.9-.6 1.3-.9.6.9-.7 1.2-1.2 1.6.1-.3-.1-.4-.1-.7zm1.2-5.7c0-.1.1-.1.3-.3.1.6.4 1.5 0 1.7 0-.4 0-1.1-.3-1.4zm.4 1.6c.1.1.3.9 0 1 0-.3-.1-.9 0-1zm.3-5.1c.3 0 .1.4.3.6-.1 0-.1 0-.1.1-.2-.1-.2-.5-.2-.7zm.3-.4c0-.3-.1-.3 0-.6.4 0 1.2-1 1.2 0-.5.1-.8.4-1.2.6zM67 53c0-.1-.1-.4 0-.6 0 .2.1.4 0 .6zm-.2 2.3c-.3.4-.7.6-1.2.7v-.3c.4-.1.9-.7 1.2-.4zm0-.4c-.4.1-.7.6-1.2.7 0-.6.9-.6 1-1 .2 0 .1.1.2.3zm-.1-.6c-.4.3-.7.6-1.2.7v-.4c.3-.3.7-.4 1.2-.7.1.1 0 .3 0 .4zm-1.2.1c.3-.4.9-.7 1.2-.9-.3.5-.9.7-1.2.9zm0 1.9c-.3-.1-.1-.6-.3-.9.3.2.3.6.3.9zm-.3-1c-.1-.1-.1-.3-.1-.4.3 0 .1.3.1.4zm-.1-1.6c.1 0 .1.3.1.6-.3 0-.1-.4-.1-.6zm0-.1c-.1-.1-.1-.4-.1-.7.1.1.1.5.1.7zm-.2-1.5c.1.1.1.4 0 .6-.1-.1-.1-.4 0-.6zm0-2.6c0-.1-.1-.1-.1-.3.1 0 .3-.1.4-.1.1.1.1.1.1.3-.2 0-.2.1-.4.1zm.2-.9c-.3-.3-.1-1-.3-1.6.1.6.3 1 .3 1.6zm0-4.3c.1 0 0 .3 0 .4-.2-.1 0-.4 0-.4zm-.3.7c0 .1-.1-.6 0-.6.1.2-.2.3 0 .6zm-1.6 22.8c.1-.1.3-.3.4-.3 0 .1.1.3.1.6-.1 0-.3.1-.3.3-.2-.1-.1-.4-.2-.6zm.7.6c0 .1-.3.1-.6.1 0-.2.5-.4.6-.1zm-.1-1.2c.4-.1.9-.4 1.2-.7.1 0 .1.3.1.6-.4.3-.9.4-1.2.7-.1 0-.1-.3-.1-.6zm1.4-3c0-.3-.1-.6 0-.7.2.1.3.7 0 .7zm.2.1c.1.1.1.6 0 .6v-.6zm.1 1.6c-.1-.1-.1-.4-.1-.7.3 0 .1.6.1.7zm0 .5c.1-.1 0 .4.1.4-.1.1-.1-.3-.1-.4zm.2.8c0 .9 0 .3 0 0 0-.1 0 0 0 0zm.1-8.5c.1.3.3 1 0 1 .3-.1.3.6.1.7-.2-.3-.4-1.3-.1-1.7zm.2 1.8c.3 0 .1.6 0 .7v-.7c0 .2 0 .2 0 0zm0 .8h.1v.7c-.1-.1-.1-.4-.1-.7zm.1.8c.3 0 .1.4 0 .6 0-.1-.1-.4 0-.6zm.1.9c.1 0 .1.4 0 .6-.1-.1-.1-.4 0-.6zm.2.7c.1.1.1.4 0 .6-.2-.1-.3-.6 0-.6zm0 .6c.1.1.1.3.1.4-.1 0-.1 0-.1.1-.2 0-.2-.3 0-.5zm0 .8h.3c0 .3-.1.3-.3.3v-.3zm.3.4c.1.1-.1.4-.1.6-.4-.3-.1-.6.1-.6zm0 .6c.3.1.1.6-.1.6-.2-.3-.2-.6.1-.6zm2-1.2c-.6.4-1.3.9-1.7 1.3-.1-.9.9-1 1.2-1.5.1 0-.1.3 0 .3 0-.3.3-.4.4-.6.1.2.1.4.1.5zm-.4-.6c0-.4 0-.7.3-.9.1.5.1.9-.3.9zm.3-1c-.1 0-.1 0-.3.1-.1-.3 0-.6.1-.6.2.1.2.4.2.5zm-.5-.6c0-.3 0-.4.1-.6.4.2.2.8-.1.6zm0-.7c-.1 0 0-.3 0-.4 0 0 .1 0 .1-.1.4.1.1.5-.1.5zm.3-.7c-.1 0-.1 0-.3.1-.1-.1 0-.4-.1-.6.1 0 .1 0 .3-.1.1 0 .1.4.1.6zm-.4-.8c0-.3 0-.6.1-.7.1 0 .1.4.1.6-.1.1-.1.1-.2.1zm.1-.8c-.1 0-.1 0-.3.1-.1-.1-.1-.3-.1-.6.1 0 .1 0 .3-.1.3.1.1.4.1.6zm-.1-.6c-.1-.4-.1-1-.3-1.6.1 0 .1 0 .3-.1.3.4.1 1 .3 1.6l-.3.1zm1.2-18.3c.1-.3.3-.6.4-1h.4c-.3.4-.3 1-.8 1zm-.5 0c.3-.3.1-.9.7-1-.2.4-.2 1-.7 1zm-.4.1c.1-.4.4-.7.6-1h.1c-.3.3-.4.7-.7 1zm-.5 0c.3-.4.3-1 .7-1.2-.2.5-.2 1.1-.7 1.2zm-.5.2c.3-.6.6-1 .7-1.5.1.3-.3 1.2-.7 1.5zm-.2 0c0-.4.6-.9.6-1.5h.1c-.1.4-.4.9-.7 1.5zm-.1-.6c-.1-.4.1-.7.3-1h.3c-.2.4-.5.7-.6 1zm-.2-.9c-.1 0-.1-.1-.1-.3h.1c.2.2 0 .2 0 .3zm.5 7.4c-.1-1.2-.4-2.5-.6-3.6.1 0 .1 0 .1-.1.3 1 .3 2.4.5 3.7zm-.5 3.5v-1c0-.1.1-.1.1-.1.1.2.5 1-.1 1.1zm0 1.8c-.1 0-.1-.3-.1-.4.1.1.1.2.1.4zm-.1-1.3c.1.1.1.3.1.6-.1-.1-.1-.4-.1-.6zm0-.3c-.1 0-.1-.3-.1-.6.1.1.1.4.1.6zm-.2 1.7c-.4.3-.7.4-1.2.7-.1 0-.1-.3-.1-.6.4-.3.7-.4 1.2-.7.1.3.1.5.1.6zm-1.3 0c0-.3-.1-.3 0-.6.4 0 1.3-1.3 1.3-.1-.5.3-.8.6-1.3.7zm1.2-1.4c-.4.1-.7.6-1.2.7v-.6c.4-.1.7-.6 1.2-.7v.6zm-1.3-.2c0-.4.9-.6 1.2-1v.1c-.2.5-.9.8-1.2.9zm.3-6.7c0-.1.1 0 .1-.1.1 0 .1.9 0 .7 0-.1 0-.4-.1-.6zm.1 5.1c-.1-.4.3-.6.6-.4 0 .3-.3.3-.6.4zm0-4.2c.1 1 .1 2.2.4 3.2-.2-.9-.4-2.3-.4-3.2zm.5-3.6c.1 0 0 .1 0 .3h-.1c-.1-.3.1-.2.1-.3zm-.2-.5c.1 0 0 .3 0 .3v-.3zm0-.1c-.1-.1-.1-.4 0-.6.2.1.2.6 0 .6zm0-.6c-.1 0 0-.3 0-.4.2 0 .2.2 0 .4zm-.1-.6v-.4c.1 0 .3.4 0 .4zm-1.8 3.1c.3-.6 1.2-.9 1.6-1-.3.4-.9.7-1.6 1zm1.8-.8c-.3.4-1 .9-1.6 1 .4-.4 1-.7 1.6-1zm-2.2-2.3c.4-.1.7-.4 1.2-.6v.4c-.4.1-.7.4-1.2.6.1-.1 0-.1 0-.4zm1.1-.9c-.4.1-.7.4-1.2.6v-.4c.4.1 1.1-1 1.2-.2zm-.8-.3c0-.4.4-.6.7-.6 0 .5-.4.5-.7.6zm1 1.4c.1.1.1.3 0 .4-.4.1-.7.4-1.2.6.2-.8.9-.8 1.2-1zm.7.4c-.1 0-.3.3-.4.1-.1-.4.3-.3.4-.4 0 0-.1.3 0 .3zm-.1-.4c-.1 0-.3.1-.4.1v-.3c0-.3.3-.1.3-.3.2.2.1.3.1.5zm-.5-.3c-.1-.1-.1-.3-.1-.6.1 0 .3-.1.3-.3.1 0 .1.3.1.6l-.3.3zm0 .8c-.1.6-.7.6-1 .9-.1 0 0-.3-.1-.3.4-.1.7-.4 1.1-.6zm0 .6c.3-.1.3-.3.6-.4.1 0 0 .3 0 .4-.6.3-1 .7-1.6.9-.1-.6.7-.7 1-.9zm-.8 1.3c0-.6 1.2-.7 1.5-1.2 0 0 0 .1.1.1-.5.5-1.2.7-1.6 1.1zm1.4-3.9c-.1 0-.1-.4 0-.6.2.2.2.5 0 .6zm0-.7c-.1 0 0-.3 0-.4.2.1 0 .4 0 .4zm0-.5c-.1 0-.1-.4-.1-.6.1.1 0 .3.1.6zm-.1-.7c-.1 0-.1-.1 0-.3.1-.1 0 .3 0 .3zm-.2-.4c0-.1-.1-.1 0-.3h.1c.2-.2.2.3-.1.3zm0 2.4c-.1 0-.3.1-.4.3 0-.1-.1-.3 0-.4.1 0 .3-.1.4-.3.2 0 0 .3 0 .4zm-.6-.4c-.3-.3.3-.4.4-.6 0 0 .1 0 .1.1.1.4-.2.4-.5.5zm-.1-.6c-.3-.4.3-.4.4-.7.1.1.1.3.1.4-.1 0-.2.3-.5.3zm-.1-.6c0-.3.4-.3.6-.6.1 0 0 .1.1.1-.2.3-.5.5-.7.5zm0-.5c0-.4.3-.4.6-.6-.1.6-.4.6-.6.6zm0 1.3c-.1.1-.4.3-.6.3-.1-.4.3-.4.6-.6v.3zm-.6-.3c0-.4.3-.4.6-.6 0 .4-.5.4-.6.6zm0-.6c-.3-.3.3-.4.4-.6.1 0 .1.1.1.3-.2.2-.5.2-.5.3zm-.2-.4c-.1-.3.1-.4.6-.4-.1.2-.4.1-.6.4zm0 2.3c-.1 0-.1.1-.3.1v-.3c.2-.1.5-.2.3.2zm-.5-1c-.1-.3.1-.3.3-.4.2.1-.1.4-.3.4zm0-.6v-.3c.1 0 .3-.1.3-.1.1 0 0 .1.1.1-.2.1-.3.3-.4.3zm0-.4c-.1-.3.1-.4.4-.4 0 .2-.3.2-.4.4zm-2.2.5c.3.3.3.6.1 1 .1 0 0-.3.3-.3.1.6-.7.7-1 1 0-.6.4-1.1.6-1.7zm-.2-.3c0 .4-.3.9-.6 1.3 0-.4 0-1.3.6-1.3zm.9 1.1c-.4-.3 0-.9 0-1.3.1.1.1.7.3 1-.2.1-.3.1-.3.3zm-.3-.6c-.1-.2-.3-.3-.3-.6.3-.3.3-.7.6-1 .4.6-.1 1.1-.3 1.6zm-.3-.6c-.1 0-.1-.1-.3 0 .1-.3.3-.7.6-1h.3c-.3.4-.6.6-.6 1zm-2.6 3.2c.3 0 .4-.4.6-.6.3 0 .6 0 .7-.1 0 .6.3 1.2.1 1.6 0 .3-.4.3-.4.7.1.3.3-.4.4-.3.1 1 .4 2 .6 2.9-1 .1-1.9.4-2.9.6-.1-1.2-.1-2.5-.3-3.6 0-.6-.3-1.2 0-1.6.3.7.3 1.6.4 2.3.1-.4 0-1.3 0-1.7 1-1 1.5-2.5 2.2-3.8.1-.1.4-.1.6-.3-.1 1.1-1.3 2.4-2 3.9zm1.5-1c-.3 0-.4.1-.7.1.3-.4.6-.7.7-1.3.1.5 0 .9 0 1.2zm-.5-1.8c-.4.7-1 1.9-1.6 2.5v-.7c.6-.7 1-1.7 1.6-2.6.1 0 .1-.1.3 0 0 .3-.1.5-.3.8zm-1.6 1.5c-.1-.9.6-1.3.7-2 .1 0 .3 0 .3-.1-.1.6-.7 1.4-1 2.1zm-.1-.9c-.1-.4.3-.7.4-1 .3.3-.3.7-.4 1zm0-.6c-.1-.1-.1-.6.3-.4-.2.1-.3.1-.3.4zm-.3 2.2c-.1-.1 0-.4 0-.6.3 0 0 .5 0 .6zm-.2-.7c-.1-.1.1-.3.1-.4.2.1-.1.2-.1.4zm-.1-.6c-.1-.1 0-.4 0-.7.3.3.1.4 0 .7zm-3.9 4.7c-.6.6 0 2.2-.3 2.9-.3 0-.3-.6-.3-.7v-2.3c0-1-.3-2.2 0-2.9.7 1.6 1.2 3.6 1.5 5.8-.4-.8-.2-2.3-.9-2.8zm.5 2.7c-.1 0-.3.1-.6 0 0-.9-.1-1.9 0-2.8.5.9.5 2 .6 2.8zm-1.4-7.2c.1-.1.3-.3.6-.3 0-.1-.1 0-.1-.3.9-.3 1.3-1.3 2.5-1.3-1 .8-1.8 1.6-3 1.9zm-1.5.5c1-.7 2.2-1.5 3.2-2.3-.7.9-2 1.6-3.2 2.3zm1.1 7c-.4.1-1 0-1.6 0 0-2.3-.1-4.4-.1-6.5.6 0 1-.3 1.5-.4h.1c-.2 2.3.2 4.4.1 6.9zm-1.8-6.8c.4-.6 1-1 1.6-1.5.6-.4 1.2-1 2-1-1.1.9-2.4 1.9-3.6 2.5zm0-.5c-.1 0 0-.3 0-.4.7-.6 1.7-1 2.3-1.7.3 0 .3.1.6.1-.9.7-2 1.3-2.9 2zm0-.5c0-.4.6-.7.7-.9.3-.3.7-.4 1-.7h.4c-.6.5-1.4 1-2.1 1.6zm0-.6c-.1-.2-.1-.3-.1-.6.6-.1.9-.7 1.6-.6-.5.5-1.1.7-1.5 1.2zM42.4 48c-.1 0 0-.3 0-.4.3-.1.6-.4.4.1-.1.2-.3.3-.4.3zm.1 3.4c-.6 0-.3-.6-.3-.9v-2.2c.1 0 .3-.1.3-.1.3 1 .2 2.2 0 3.2zm-.2-3.9c.1-.1.3-.3.4-.3 0 .1-.2.3-.4.3zM40.5 52h-.3v-.6c.1.1.3.1.4.1-.1.2-.1.3-.1.5zm-.3-.8c-.1-.9 0-2.5.1-3.3.1.9.2 2.5-.1 3.3zm0-3.6c0-.4.6-.4 1-.4-.3.3-.7.1-1 .4zm-.1.2h-.3c0-.3.3-.1.3-.3 0 0-.2.1 0 .3zm-2.5 16.5c-.3-.3-.3-.9-.3-1.3-.1-1.5-.4-2.9-.4-4.4 0-2 .1-4.1.3-6.1v-.1c.6 0 1.2 0 1.7.1 0 1.9-.1 3.6-.4 5.4-.1.9-.3 1.6-.4 2.5-.2 1.3.1 3.1-.5 3.9zm-.4-13.2c.1 0 .3 0 .4.1 0 .1-.1.1 0 .4h-.3c-.1-.1-.1-.4-.1-.5zm.7.7v-.6h.4v.6h-.4zm.6 0v-.4c.3 0 .3.1.6 0v.6c-.3 0-.5-.2-.6-.2zm-2.4-1v.6c-.1 0-.1-.1-.4 0v-.7c-.3 0-.3.3-.3.6H35c-.3 0 0-.4-.3-.4s.1.3-.3.3c-.3-.1.1-.6-.1-.6s0 .6-.4.6c-.3 0 0-.3 0-.6-.3 0-.4-.1-.7-.3.3-1 .3-2.3.4-3.5h.4c-.1 1-.1 2.3-.3 3.3.3-1 .4-2.2.6-3.3 1.6.1 2.6.9 4.4.9 0 1.2-.1 2.2 0 3.1.3-.7.1-2 .1-3.1h.4c0 1-.1 2-.1 3.2-.8.1-1.9.1-3-.1zm.8.3v.4c-.4.1-.3-.3-.4-.6.1.1.1.2.4.2zm-1.5 2c-.1 1-.3 2.2-.3 3.2-.1-1 0-2.9.1-4.2h.1c.3.3.1.7.1 1zm-3.5 6.6c-.3.1-.6.3-.9.6-.1 0 0-.3 0-.4.4-.1.6-.4.9-.6.2.1-.1.2 0 .4zm-.3.8c-.3 0-.6.3-.7.4 0-.6.6-.6.7-.9.3.1 0 .4 0 .5zm-.1.9c-.3 0-.4.3-.7.4-.1-.7.6-.7.7-1 .3 0 0 .3 0 .6zm-.2.9c0 .6-.1 1-.3 1.6-.1.4 0 1.2-.4 1.5-.1-1.2 0-2 0-3.2.3-.1.4-.3.6-.6.4.4-.4.7-.6 1 .5.1.5-.3.7-.3zm-.2-2.6c-.1-.1 0-.4 0-.7.4 0 .7-.3 1-.4.3.5-.9.6-1 1.1zm-.2-.9v-.4c.4-.1.7-.3 1-.6.3.6-.6.9-1 1zm0-.6c0-2.5 0-4.7.4-6.7.3 0 .4.1.7.1-.1.4-.3 1.2-.1 1.7.1-.4.1-1.2.3-1.6.4 0 1 .1 1.5.3-.6 1.9-1.3 3.3-1.5 5.7-.4.1-.9.5-1.3.5zm-2-9c-.1.1 0-.3 0-.4v.4zm-.6 0c.1-1 .1-2.2.4-3.1 0 .8-.1 2.1-.4 3.1zm2.8.9c-.4-.3-1.2-.4-1.7-.6.1-1.3.3-2.5.4-3.6.1-.3.6-.4.9-.3-.1.1-.4.1-.6.3.3.1.9.1 1.2.3-.1 1-.4 2.5-.3 3.6.3-1 .3-2.3.4-3.6.4.1.3.7.1 1.2-.1.9-.3 2-.1 2.9.3-.3.1-.7.3-1.2 0-.9.1-1.9.3-2.6.4.1.1.9.1 1.5-.1.9-.3 1.6-.3 2.6.1.1.3 0 .4 0 .1-.3-.1-.3-.3-.4.3-1 .1-2.5.6-3.5.1 1-.6 2.5-.3 3.6.4-1 .3-2.5.7-3.5.3.3 0 1 0 1.6-.3.7-.4 1.5-.4 2.3-1.3-.3-2.6-.6-3.9-1 .7-.1 1.6.4 2.5.4zm-1.8-4.8c.1.3-.1 1-.1 1.6-.2-.3.1-1.2.1-1.6zm1.5.4c.1-.1.3-.1.6-.1-.2.1-.3.1-.6.1zm1.3 0c-.1.1-.1.1-.3.1-.2-.1.1-.1.3-.1zm.1.3c.1 0 .1-.1.3 0v.3c-.1-.1-.3-.1-.3-.3zm1.2.7c.3.9-.1 1.9-.3 2.9 0 .4.1.9-.1 1.2-.1-.1-.3-.6-.3-.7.1-1 .5-2.3.7-3.4-.2 0 0 0 0 0zm-.2-.4s0-.1 0 0c.1-.1.1-.1.3-.1 0 .1-.1.2-.3.1zm.2 4.5v-.1h.3c0 .1 0 .3-.3.1zm.4-4.5c0-.1.6-.1.6 0h-.6zm5 1.2h-.4c.1-.1.3-.1.6-.3-.2.1-.4.1-.2.3zm-.8-.2c-.3 0-.3-.1-.6 0 .3-.3.7-.4 1.2-.4 0 .1-.6.1-.6.4zm-1.1-.1c.3-.3.6-.4 1.2-.4-.5.1-.8.5-1.2.4zm-.5-.2c.1-.1.6-.3.9-.4-.3.1-.6.3-.9.4zm3.1.3c0 .1-.1.3-.3.3-.1-.3.1-.3.3-.3zm-.2 4.1h.6v.4h-.4c-.2 0-.2-.3-.2-.4zm.3-.3c-.3-.1-.1-.7-.1-1.2 0-.6.1-1.3.1-1.9v-.1h.1c.1.6.1 1.5 0 2.3.2.3.2.8-.1.9zm.5-4.1c0 .3-.3.1-.3.3-.3-.1.1-.3.3-.3zm-5.6-.4c.1-.1.4-.3.9-.3-.3.1-.6.3-.9.3zm-6.8-.3c-.1-.6.1-1.2.1-1.7h.2c-.1.5-.3 1.1-.3 1.7zm.4-1.6c.3.3 0 .7 0 1.2-.1.4-.1.9-.3 1.3v.3c.1-.9.3-2.1.3-2.8zm.2 4.9c-.1 0-.3-.1-.6-.1.2-.1.6 0 .6.1zm1-12.5c.1-.3.6-.6.7-.9 0 .5-.4.8-.7.9zm.2.3c0-.3.3-.4.4-.6.3.3-.2.8-.4.6zm0 .2c0 .3-.3.1-.3.4.4 0 .4-.4.7-.6 0 .3 0 .6-.1.9-.4 0-.6-.3-.7-.6.1-.1.2-.3.4-.1zm.2 1.6c-.4-.1-.4-.7-.7-.9.1 0 .4.4.7.3.2 0 0 .3 0 .6zm-.7-1.6c-.1-.1 0-.3.1-.3.1.1-.1.1-.1.3zm-.3-.5c-.1-.1 0-.4.3-.3-.1.3-.1.3-.3.3zm0-.7c-.1-.1.1-.3.3-.4.2 0-.1.3-.3.4zm-.1-.3c-.3-.1-.1-.4 0-.6.1 0 .1.1.3.1 0 .4-.3.4-.3.5zm0 .3c.1 0 .1.3-.1.3v-.1c-.2-.2-.1 0 .1-.2zm-.5 0c-.1-.1-.1-.1 0-.3.1 0 .1.1.3.3-.1-.1-.1 0-.3 0zm.5 1c0-.1-.1-.1-.1-.3.1 0 .1.3.1.3zm1.1 1.9c-.1 1.3-.1 2.8-.3 4.2-.1 0-.3-.1-.4-.1 0-.1 0-.6.3-.6-.3-.6 0-.9 0-1.6-.1-.1.1 0 .1-.1-.1-.3-.1-1 0-1.2-.6-1.2-1.5-2-2.2-3.2 0-.1.1-.4.1-.6.8 1.2 1.4 2.3 2.4 3.2zm-.4.6c0 .3-.1.4 0 .7-.4-.3-.6-.9-1-1.5s-1.2-1.2-1-2c.7.9 1.3 1.9 2 2.8zm-1.2-.1c.4.6 1 1 1 1.9-.4-.1-.7-.7-1-1.3-.4-.6-1.2-1.2-1-1.9.3-.1.6.5 1 1.3zm0 1c.3.4 1 1 .9 1.6-.3-.4-.7-.9-1.2-1.5-.4-.4-1-1.3-1-1.9.6.6.9 1.2 1.3 1.8zm4.7-1.9h.6c-.6 1.6-.7 3.5-.9 5.5h-.3c0-1.9.2-4.1.6-5.5zm-.4-.3c.1-.1.3-.3.4-.3 0 .3-.1.3-.4.3zm2.7-.3c-.3.1-.7.1-1.2.3.1-.3.9-.7 1.2-1 .2.3 0 .4 0 .7zm-.1.3s.1 0 0 0c0 2-.3 3.9-.4 6.1-.3 0-.4-.1-.7-.1 0-1.5.6-3.5 0-4.8-.6.3-.6 1.3-.6 2-.1.9-.3 1.7-.3 2.5-.1-1.9.1-4.1.7-5.5.4.1.8-.1 1.3-.2zm-1.5 6c-.1 0-.3-.1-.6-.1.1-1.6.1-3.2.6-4.5.6 1.4.3 3.2 0 4.6zm-.1-7c.1-.1.1-.4.4-.3 0 .3-.3.3-.4.3zm.1.3c.2 0 .2 0 0 0 0 .4-.3.4-.6.6 0-.3.5-.5.6-.6zm-4-1.5c0 .3-.3.3-.3.4-.3-.1 0-.4.1-.6.2.1 0 .2.2.2 0-.1-.1-.1-.1-.1 0-.4.4-.4.6-.7.5.1-.3.7-.5.8zm-.3-.4c-.1-.1.4-.6.6-.7.2.1-.5.4-.6.7zm-.3-.3c0-.1 0-.1-.1-.1.1-.3.3-.7.9-.6-.4.2-.5.5-.8.7zm-.3-.5c0 .1-.1.3-.3.4-.1 0 0-.1-.1-.1 0-.3.3-.4.4-.7.1 0 .3.1.4 0-.1.2-.3.4-.4.4zm-.7-.1c-.1-.3.1-.3.1-.6h.3c-.2.5-.3.6-.4.6zm-.6-.9c.1.4.1.7 0 1.2-.4-.3-.4-.9-.3-1.5.1.1.6.1.6.6-.3 0-.2-.1-.3-.3zm-.6 4.2c-.3-.1-.1-.4-.1-.9.2.1.1.5.1.9zm0 1.5c.1.1 0-.3.3-.3.7 1.2 1.5 2 2.2 3.2v.6c-1.1-1.2-1.9-2.2-2.5-3.5-.3.1-.1.4 0 .6.4.9 1.5 1.7 1.9 2.6-1-.3-1.5-1.7-2.2-2.6 0-.7.1-1.3.1-2 .5.2 0 .8.2 1.4zm-.2 6.3c0-.6.3-1.6.3-2h.1c-.1.7-.3 1.5-.4 2.2v-.2zm.2-2.8c.1-.1.3-.4.6-.1 0 .1-.1.3-.1.3-.4.1-.5-.1-.5-.2zm.3.9h.3c0 .4-.1.9-.3 1.5-.2-.5.3-1.1 0-1.5zm.4.1h.1c0 1.3-.4 2.8-.6 4.2-.1-1.4.5-2.7.5-4.2zm.3 4.1c0-.3.1-.6.1-1 .1.1-.1.8-.1 1 0 .1 0 .6 0 0zm1.6 2.7c0-.4.6 0 .7 0 0 3.8-.7 7.7-.7 11.8 0 2.2-.3 4.8.6 6-.7-.1-1.5-.3-2-.4.4-5.9.7-12 1.4-17.4zM41.1 48c.1 0 .3 0 .3-.1.3 1 0 2.5-.1 3.3-.3-.1-.1-.6 0-.9-.2-.7-.2-1.5-.2-2.3zm0 3.5v.4h-.3v-.4h.3zm.4.6v-.4c.1 0 .3.1.4 0v.4c-.2 0-.2-.1-.4 0zm.2-4.8c-.1.3-.6.4-.7.6.1 1 0 2.3.1 3.2-.1.1-.3-.1-.4 0 .1-1.2 0-2.3 0-3.5.6-.1.9-.6 1.6-.6-.2.3-.6.6-.6.3zm.6 4.5h.4v.3h-.6c0-.1.2-.1.2-.3zm6.6.3c-.3 0-.4-.1-.6 0 .7-.1 1.3 0 2 0 .4 0 .9-.1 1.3-.1s1.2-.3 1.6 0c-.9.3-3.2.1-4.3.1zm20.5 12.4c-.1-.3.3-.7.1-1 .1 0 .1-.1.3-.1.1.3.1.9-.4 1.1zm7.3-22.1c.1.1.1.1.1.3-.1.1-.1-.2-.1-.3zm1.2 16.4c-.3-.1-.3-.4-.3-.7.1-.1.1-.1.1-.3.1.1.1.6.3.7 0 0-.3 0-.1.3zm-.6-.4c.3.3.3.7 0 1-.1-.2-.3-.7 0-1zm-.1 1.3c0 .1-.3.1-.3.3-.3-.1-.3-.7 0-1 .1.1.1.5.3.7zm1-2.8c.1.3.1.7.3 1h-.1c-.5-.1-.4-.7-.2-1zm-.3 3.5c.3.1.3.6.3 1-.6.4-1 1-1.6 1.3-.6-1.1 1-1.4 1.3-2.3zm.3-.4c.1.3.3.6.4.7 0 .1-.1.3-.1.3-.3-.2-.5-.7-.3-1zm.3-.8c.3.3.4.6.6.9 0 .3-.3.3-.3.6-.3-.4-.8-1-.3-1.5zm.1-1.7c-.1 0-.1-.1-.1-.3.1 0 .1.2.1.3zm-.1-1.3c.1.3.4.6.4 1-.4-.3-.6-.7-.4-1zm.3-.7c.3.3.6.7.3 1.2-.3-.4-.6-.9-.3-1.2zm.2-1.2c.3.4.4.9.3 1.5-.4-.3-.4-.9-.3-1.5zm.3-1c.3.4.7 1 .3 1.6-.3-.5-.6-1-.3-1.6zm0-6l.4 1.6c-.5 0-.2-.9-.4-1.6zm.8 3.1c-.3-.3-.6-.4-.6-1.2.3.2.6.6.6 1.2zm-.6 1.3c.1.7.7 1.3.4 2.2-.4-.6-.6-1.3-.4-2.2zm.6.4c-.3-.6-.6-1.2-.6-1.9.6.2.6 1.2.6 1.9zm.5-9.9c-1.2-1.3-2.3-2.6-2.9-4.5.1-.3.4-.4.6-.6.6 1.6 1.9 2.5 2.3 4.2-.9-1.2-1.6-2.5-2.3-3.8.3 1.8 1.6 3.3 2.3 4.7zm-.2-7.4c.4.4.1 1.2 0 1.7-.1 1.2 0 2.6 0 3.8-.7-1-1.5-2-2-3.2.3-.4 1-1.2 1.6-.7.1-.1 0-.4-.1-.4-2 .4-2.3 2.5-4.4 2.9.9.3 1.5-.6 2-.9.6 2 1.7 3.3 3.2 4.5.4 2.5 1.2 4.7 1.7 7-1-1.2-1.5-2.9-2.5-3.9-.4 0-.1.6-.1.9-.4-1.5-1-2.8-2-3.5 0-.1.1-.3 0-.4-.3 0-.1.4-.3.3 0-.1.1-.1 0-.4.4 0 1 0 1.2.3-.3-.4-1-.6-1.7-.6-.6-1-1-2.2-1.7-2.9.6.9 1.2 1.9 1.5 2.9-.6 0-.7-.7-1-1-.4-.7-.7-1.5-1.3-1.9 1.6-.7 2.8-1.9 4.1-2.9.4-1 .9-1.4 1.8-1.6zm-11.7 3.6c4.5 1.3 7-1.7 9.5-3.3 0 .1-.4.3-.6.6-1.7 1.2-3.3 3.3-6.1 3.5-1 .1-2.2-.1-3.2-.3-.3 0 .3-.3.4-.5zm-.4 0c-.1.3-.6.6-1 .4.1-.2.5-.6 1-.4zm-.7-.2c-.1.3-.4.6-.7.6 0-.1 0-.6-.1-.7.2-.2.3.2.8.1zm-.8 3.9c0 .1-.1.6-.1.7-.5-.1 0-.6.1-.7zm.2 5.4c-.1 0-.3.1-.4.3 0-1.5-.4-2.9-.3-4.1.4 1 .4 2.6.7 3.8zm-.8-4.4c-.1 0-.3-.1-.3-.4.1 0 .1 0 .1-.1.4.1.4.5.2.5zm1.9-13.4c-.3-.1 0-.4.1-.6.2.2-.1.3-.1.6zm-.1-1c-.1-.4.4-.6.6-.9 0 .3-.5.8-.6.9zM48.9 14.5c-.4.1-1 0-1.6 0 .3-.6 1.2-.2 1.6 0zm-1.3-.5c-.1.1-.4.4-.7.3.2-.3.3-.4.7-.3zm-.5-.3c-.1.1-.4.4-.7.3.2 0 .4-.3.7-.3zm-.5 0c-.3.3-.6.4-1 .4.1-.2.4-.7 1-.4zm-.6-.3c-.4.3-.7.6-1.5.6.5-.1.8-.7 1.5-.6zm-.7 0c-.6.3-1 .7-1.9.9.6-.4.9-1 1.9-.9zm-1.9 1.2s0 .1 0 0c-.3.6-.4 1.2-.7 1.6-.1 0-.1-.1-.3-.1.3-.5.4-1.2 1-1.5zM42 15.9c.3-.4.3-1 .9-1-.4.3-.5 1-.9 1zm1.7-1.2c0-.1.1-.1.1-.1h.3c-.3.6-.7 1.3-1.2 1.9-.1-.4.5-1.3.8-1.8zm-1.4-.1c.4-.4 1-1.3 2-1.2-.6.5-1.2 1.1-2 1.2zm-8.2 1.5c-.4.3-1 .1-1.5 0 .3-.3.9 0 1.5 0zm-1.2.2c-1 .6-2.6.6-3.6 1.3.7-.7 2.3-1.7 3.6-1.3zm-1.1.6c-.9.7-2.2 1-3.2 1.6.6-.9 2.5-1.1 3.2-1.6zm-1.3 1c-.4.6-1.7.9-2.5 1.3.6-.7 1.7-.8 2.5-1.3zm-.3.6c.1.1-.1.3 0 .6-.9.1-1.7.6-2.5 1 .3-1 1.8-1 2.5-1.6zM26.8 21c0 .1-.1.1-.3.3l.3-.3zm0 .3v.3c-.6.1-.9.4-1.2.7.2-.3.8-.7 1.2-1zm-.4.9c0 .6-.9.9-1.3 1.2.1-.7 1-1 1.3-1.2zm.3 2c-.7.3-1.3.7-2 1 .1-.9 1.5-1 2-1.6.3.3 0 .4 0 .6zm-.2.3c.1 0 .1.3.1.4-.7.3-1.5.7-2 1.2-.1-.1-.1-.3-.1-.4.7-.5 1.5-.8 2-1.2zm-2.4.3c.3 0 0 .3.1.4-.6.3-1 .9-1.3 1.6 0-.7.6-1.4 1.2-2zm1.6 7.2c-.3.1 0 .4 0 .6-2.3.1-3.5-1.5-3.2-3.5.1-1.3 1.2-2.2 1.7-2.9-.1-.1-.3.1-.4.3 0-.1.3-.4.4-.6.4 1-1 1.3-1.3 2 .6-.1 1-1.2 1.7-1.5 0-.1.1-.1 0-.3.7-.4 1.5-1 2.2-1.2 0 .3-.4.4-.7.6-.3.1-.7.3-.9.6.6 0 1.3-.7 1.9-.9.3 0 .3.3.4.4.1-.1.1-.1.4-.1.1-.3-.3-.4-.3-.7-.3-.7-.1-1.5 0-2.2-.6.7-1.7 1.2-2.8 1.9 0-.6.7-.7 1.2-1 .4-.3 1-.6 1.3-.9-.9.1-1.7 1-2.5 1.3.3-.6 1-.9 1.6-1 1-1.2 2.9-1.5 4.7-1.9-.9-.7-2.8.1-3.6.4 0-.4.1-.9.1-1.3.9-.3 1.7-.7 2.6-.9 0 .3-.4.4-.6.4-.6.3-1.5.6-2 1 1 0 1.9-.7 2.6-1 .1 0 .1 0 .1.1.1-.1.1-.3.3-.4 0-.1-.3 0-.3-.1.6-2.6 3.3-2.8 5.8-3.3-.7-.4-1.7.3-2.3-.1.3-.1.9-.1 1.2 0 .1-.1-.1-.3 0-.3 1-.3 2-.3 3.2-.1 1 0 1.6.4 2.3 0-.1-.1-.3-.1-.3-.3-.1.1-.4 0-.7 0 1.2-.6 2.2-1 3.5-1.3-.6.6-1.2 1-1.9 1.6.1.3 0 .3-.1.7.4-.1.3-.9 1-.7-.3.4-.4.9-.9 1 .4.1.9.7 1.3.6.1 0 0 .1 0 .1.9-.3.9-1.9 1.9-2.3-.4.9-1 1.7-1.5 2.6.3.1.4-.4.6-.6.1-.3.3-.4.4-.7.3-.4.4-1.2 1-1.3-.4 1-1 1.7-1.5 2.9.6-.4 1-1.5 1.5-2.2.1-.3.3-.7.6-.6-.1 1-1.2 1.7-1.6 2.8-.4.3-1 .6-1.5.9 1-.1 1.9-.4 3.2-.6.7 0 1.2-.4 1.9-.6-1.2-.1-2.3.1-3.3.3.3-.4.6-.9.9-1.5.3-.4.4-1.2 1-1.3-.3.9-1 1.6-1.5 2.5.7-.4 1.2-1.6 1.6-2.3.4.1 1 .1 1.6.3.3 0 .4.3.6.3.9.1 1.7 0 2.6 0 1 .1 1.9.4 2.8.6-1.9.6-4.4.9-5.2 2.5.4 0 .7-.3 1.2-.6.4-.1.9-.3 1.3-.4 1-.3 2.2-.6 3.3-.7h1c.6 0 1-.1 1.6 0 .6.1 1 .6 1.6.7-.3.1-.7.3-.7.6.7.1 1.9-.3 3.1-.3.6 0 1.2.3 1.7.3-.4.3-.9.3-1.2.6.7.1 1.2-.7 1.9-.4-.4.3-1 .3-1.3.6.6.1 1.3-.7 1.9-.3-.6.1-1.3.4-1.9.6.7.3 1.7-.9 2.5-.3-.9.1-1.6.4-2.2.7.9.1 2-.9 2.8-.4-.7.3-1.6.3-2 .7.9 0 1.7-.7 2.3-.4-.6.3-1.5.3-1.9.7.7 0 1.7-.9 2.3-.3-.7.3-1.6.4-2.3.7.1 1.5-.3 2.6-.7 3.5-.1.1-.1.4-.3.6-1.2 1.9-3.8 2.2-6.5 2.6 4.8.6 8.1-1.7 7.7-6.5.9-.1 1.5-.4 2.3-.6 0 .1.1.1.1.3-.7.1-1.6.1-2 .6.7.1 1.5-.3 2.2-.4.1.4.4 1 .6 1.6.1.6 0 1.3.4 1.5.3-.1.3-.7.3-1.2.7.7 1.3 1.6 1.6 2.8-.1-.1-.3-.4-.6-.6-.7.4-1.3.9-1.9 1.6.7 0 1.2-1 1.7-1.3.1.3-.3.6-.6.7-.3.3-.7.4-.7.7.7-.3 1-.9 1.6-1.2-.3 1-1.3 1.3-1.9 2 .9-.3 1.2-1 1.9-1.5-.4.6-1.2.9-1.5 1.6.6-.1.9-.9 1.3-1-.1.6-.7.7-.9 1.2-.1 0-.3-.1-.4 0 .3 2.2.3 4.8-1.2 5.8-.4.3-.9.4-1.3.6 1.2-.9 2-1.9 2.2-3.9-.1-.1-.1.3-.3 0-1 2.3-2.5 4.4-6.1 4.2-.9.7-2.3 1.3-3.9.9.1-.6.9-.4 1.5-.6 0-.4-1.2-.4-1.7-.6-.1-.3-.3-.6-.6-.7-.3 0-.4.1-.4.3 0 .6.4.7.7.9-1 .7-3.3.7-4.7.3.1-.1.4 0 .4-.3-.6-.3-1.2 0-1.9 0-1 0-1.6-.4-2.5-.6-.1.4-.6 1-1 1.3-.1-.1.3-.4.4-.7s.4-.6.6-.9c-.7.3-1 1.5-1.9 1.6.1.6 1 .1 1.2.1.3-.4.6-1.2.9-1.3 0 .6-.7 1-.9 1.7.7-.1.7-1 1.2-1.5.1 0 .1.1.3.1-.1.4-.6 1-.9 1.5-1.2.3-2.2.4-3.3.1-.7-.1-1.5-.6-2-.7-1.2-.3-2.5 0-3.6-.1-.6 0-1.3-.4-2-.3 0 .3.1.3.3.4-1.9 1.2-4.5-.1-5.5-1.3.1 0 .1 0 .3-.1 1 .7 2.5 1.9 4.4 1.3-.1-.3-.7-.1-1.3-.3-1.3-.1-2-.7-2.6-1.6.7.1 1.3-.1 1.7-.1.4-1.2 1.2-2.3 1.5-3.8-.6.7-.9 1.9-1.3 2.9-.1.3-.3.7-.6.6.6-1.2 1.2-2.5 1.6-3.8-.3 0-.3 1-.7.7 0 .1.1.1.1.3-.3.9-.9 1.7-1.2 2.6-.1 0-.1-.1-.3-.1 0-.3.3-.6.4-1 .1 0 .3-.1.4-.3 0-1 .4-1.6.7-2.5-.6.3-.4 1.2-1 1.6 0-.1-.1 0-.3 0 .1-.4.4-.9.6-1.5.1-.1.1.1.4 0 .1 0 .1-.3.3-.4 0-.1-.1-.3-.3-.3 0-.1 0-.3.1-.3-.4.3-.4.7-.6 1.2-.1 0-.6 0-.6.4-.1.3.3 0 .3.1-.3.7-.7 1.2-.7 1.9-.1 0-.1-.1-.3-.1.4-1.2 1-2.2 1.3-3.5-.9.9-.9 2.5-1.7 3.3.1.4-.3.9-.4 1.3.3 0 .3-.4.6-.6.1.1.1.4.3.6-.4.1-.9.1-1.3.1.6-1.3 1.2-2.5 1.6-3.9-.7 1.2-1.2 2.6-1.7 3.8-.1 0-.3-.1-.4 0 .6-1.3 1.3-2.6 1.7-4.2-.6.4-.7 1.7-1.3 2.5-.6-.4.1-1 .4-1.3-.1 0-.1.1-.4.1.1-.4.6-1 .3-1.5 0-.1-.1 0-.3 0 .1-.4.3-1 .4-1.5-.4 0-.4 1-.7 1.5-.4.1 0-.3-.4-.1 0-.4.3-.9.3-1.3-.4 0-.4 1-.7 1.3-.1-.1 0-.1 0-.3s-.3.1-.3 0c.1-.6.4-1 .6-1.7-.4 0-.3 1.3-1 1.3 0-.7.4-1.2.6-1.7-.4 0-.4 1-.9 1.3-.3-.3.1-.6.1-1-.3 0-.1.6-.6.7 0-.3.1-.6.1-.7-.1.1-.1.4-.3.6-.3-.1-.1-.4-.1-.7-.1.3-.7.4-.6 1-.3.1-.7.3-.9.7.4.1.7-.7 1.2-.6-1.3 1-2.9 2.2-3.8 3.6 1-.9 2-2 3.1-2.8.1.4-.3.6-.6.7-.7.7-1.5 1.5-2 2.3-.4-.1-.6-.6-1-.7-.3.6.4 1.3 1 1 .1 0 0-.1 0-.3 1.3-1 2-2.6 3.6-3.3.3.1.3-.3.6 0-.6.4-1.2.7-1.7 1 0 .1.1 0 .3 0-.7.9-1.7 1.6-2.2 2.8 1-.7 1.7-2.3 3.5-2.8-.3.7-1.3.7-1.7 1.3.6 0 .9-.4 1.5-.6-.1.6-1 .6-1.3 1 .3.1.6-.4 1-.4-.1.1-.1.3-.3.6.4-.4.6-1 1.3-1-.1.9-.9.9-1.3 1.3-.3 0-.1-.1-.3-.1 0 .3-.1.4-.3.6.1.1.4-.3.7 0 .1-.1 0-.1 0-.3.3-.1.6-.3.9-.4-.1.6-.3 1-.6 1.6.3 0 .3-.4.6-.6.3.1-.1.6-.3.7.7-.1.4-1.2 1-1.3-.1.4-.4.9-.6 1.3.6.6 1.2.9 2.3 1-2.5 1.4-4.1-.1-5.4-1.3zm6.4.8c-.1-.1-.3-.1-.3-.3.1-.1.3 0 .4 0 0 .1-.1.1-.1.3zm.1.1c.1-.3.3-.6.4-.9.1 0 0 .1.3.1-.1.3-.3.6-.4 1-.1.1-.1-.2-.3-.2zm-3.5-2.2c.1-.4.3-.7.6-.9.2.4-.1.9-.6.9zm.2.3c0 .3-.3.9-.6 1.2 0-.4.1-1 .6-1.2zm-1.5-1.3c.1-.4 1.2-1.2 1.6-.9-.6.3-1.1.5-1.6.9zm1.9-.6c-.3.1-.6.3-.9.4 0-.2.6-.5.9-.4zm.6.3c-.6.3-1.2.6-1.7.9.2-.6 1-1 1.7-.9zm.6.6c.1.3-.3.9-.7 1-.1-.3.2-.7.7-1zm-.2-.6h.4c.1.3-.4.4-.6.6-.1 0 .2-.3.2-.6zm-.8 1c-.1-.3.3-.7.6-.9.1.5-.4.8-.6.9zm.1.2c.1.3-.3.9-.6 1 0-.3.2-.9.6-1zm-.4 1.7c.1-.3.3-1.3.7-.7-.1.4-.3.7-.3 1-.3 0-.3-.1-.4-.3zm.1.6c0 .3-.3.4-.6.3 0-.1.1-.3.3-.6.2.2.3.2.3.3zm.3 0c.1 0 .1.1.3 0 0-.1-.1-.1-.1-.1.1-.3.3-.6.4-.9.1 0 .1.1.3.1-.3.4-.4 1.3-.9 1.3-.1-.1 0-.2 0-.4zM28 28.1c-.3.1-.7.6-.9.4.2-.2.6-.5.9-.4zm-2.8 14c.4.3.7.6 1.2.7 0 .1-.1.1-.1.3.1 0 .1-.1.1-.3.3.1-.1.3-.1.3-.3-.1-1.5-.4-1.1-1zm-.1 1.1h.3c.1.3 0 .6 0 1v3.2c-.1-.1-.3-.3-.3-.4v-3.8zm2.6 6.2c-1.2-.1-2.3-1-3.2-1.9.9.7 2.2 1.3 3.2 1.9zM24.8 43c0 1 0 2.6-.1 3.8-.6-1.1 0-2.8.1-3.8zm-.4 13.3c.1.1.1.6.1 1-.3-.1-.1-.7-.1-1zm0 1.1c.1 0 .1.3.1.6-.3.1-.1-.4-.1-.6zm-.2.7c.1 0 .3.4.1.7-.2 0-.1-.4-.1-.7zm0 4.5c.3.4.7.7.6 1.5-.3-.5-.7-.8-.6-1.5zm-.1.9c.1.3.7.7.6 1.3-.3-.3-.8-.8-.6-1.3zm0 .8c.3.3.7.7.4 1.2-.4-.3-.6-.4-.4-1.2zm-.2 1c.1.1.4.4.3.7-.1-.1-.3-.2-.3-.7zm-.1.6c.3.1.4.4.3.9.1 0 .1-.1.1-.3.4.3.6.7 1.2.9 0-.1-.4-.3-.4-.7.3.1.6.4.6.9-.7-.3-1.3-.6-1.9-1-.1-.2.2-.2.1-.7zm-1.2 1c3.2 1.9 7.3 2.8 11.8 3.3 3.3.4 7.1.7 10.5.7h2.9c.1 0 .6-.1.7.1.7-.3 1.7-.1 2.8-.3 1.5 0 2.9-.1 4.2-.3 0 .3.6-.3.4.3 0 .3-.1.1-.9.3-5.2.4-11.9.3-16.9-.1-4.4-.4-8.1-1-11.9-2.2-1.3 0-3.6-.4-3.6-1.8-.1 0 0 0 0 0zm32.2 6.2s.1 0 .1-.1c.3.1 0 .4-.1.6 0-.3.1-.5 0-.5zm.1-.5c-.3-.1 0-.7.3-.7-.1.3 0 .7-.3.7zm-.7-.6c.1 0 .1-.1.4 0l-.3.3c-.1 0-.1-.3-.1-.3zm.1.5c.1 0 .1-.1.3-.1.1 0 0 .3 0 .6-.1 0-.1 0-.3.1-.1 0 0-.3 0-.6zm.2.8c.3 0 0 .4 0 .6-.3-.3-.2-.6 0-.6zm0 .6c.1.1 0 .6-.1.6-.1-.3-.1-.4.1-.6zm0 .8c.1.1 0 .4-.1.4-.2-.2.1-.3.1-.4zm0 .5c.1.1 0 .3-.1.3-.1-.1.1-.1.1-.3zm.1.5c.1.1.1.4.1.7-.1 0-.1-.1-.3 0-.1-.4.1-.7.2-.7zm-.7-2.8c.1.1.1.6-.1.6-.2-.3-.1-.4.1-.6zm0-.7c.1.1 0 .4-.1.6-.2-.3-.2-.6.1-.6zm0 1.4c.1.1 0 .6-.1.6-.2-.3-.1-.4.1-.6zm-.2.9s.1 0 .1-.1c.3.1 0 .6-.1.6v-.5zm.3.6c.1.1 0 .4-.1.4-.2-.3 0-.3.1-.4zm0 .6c.1.1 0 .3-.1.3-.2-.3.1-.2.1-.3zm-.7-3.1c.1 0 0 .4 0 .6-.1-.1-.1-.6 0-.6zm-.1-.3V72h.3c0 .2-.2.3-.3.3zm.1 1c.1 0 0 .3 0 .4-.1.1 0-.2 0-.4zm0 .8c.1 0 .1.4 0 .4s0-.3 0-.4zm0 .8c.1 0 .1.3 0 .4v-.4zm-.6-1.8c.3 0 .1.6 0 .6 0-.4-.1-.5 0-.6zm0-1.1h.3c0 .3 0 .6-.1.7-.3-.1-.3-.5-.2-.7zm0 2.2c0-.1 0-.3.1-.4.2.1.1.6-.1.4zm.2.3c.1.1 0 .4 0 .6-.3-.2-.2-.6 0-.6zm0 .7c.3 0 .1.6-.1.4-.1-.1-.1-.2.1-.4zm.1.8c0 .3 0 .4-.3.4.2-.3 0-.4.3-.4zm-.7-2.8c-.1-.3-.1-.7-.1-1.2h.3c-.2.5-.1 1.1-.2 1.2zm0 .3c0 .9.1 2.3.3 3.2-.3 0-.3-1.2-.3-1.6 0-.7-.2-1.3 0-1.6zm-.6-1.2v-.1h.1c0 1.5.1 3.2.1 4.5-.6 0-.3-.7-.3-1 .1-1.3 0-2.5.1-3.4zm-.4 4.2c-.3-.1-.1-.7-.1-1V72h.1c.3.1.1.6.1 1-.1 1.2.2 2.7-.1 3.5zm-.8 0c-.3 0-.1-.6-.1-.9v-3.3l.1-.1h.1c.1.9.1 2.5 0 3.8.2.1.4.7-.1.5zm-.2 0c-3.5.1-7.3 0-10.8-.4 0-.3.3 0 .6-.1 0 0-.3 0-.4-.1 0-1.3.3-2.5.3-3.8 3.2.1 6.5.1 9.7.1 0 1.3-.1 2.8 0 3.9.3-1.2 0-2.6 0-3.9h.6v4.3zm-11.1-.7c-.4 0-.1-.4-.1-.7 0-.9.3-2 .3-2.9V72h.4c0 1-.1 2-.3 3.1-.2.1 0 .6-.3.7zm-.4-3.8c-.1 1.2-.1 2.5-.4 3.6-.3-.3-.1-.9 0-1.5 0-.7.1-1.3.1-2V72h.7c-.1 1.3-.1 2.6-.4 3.6-.2-1.1.3-2.4 0-3.6zm-8.2 10.1c0-.3.1-.4.3-.7.6.1 1 .4 1.6.6v.6c-.7-.1-1.2-.4-1.9-.5zm1.8 1.3s-.4.3-.7.4c-.1-.1.4-.4.7-.4zM30 80.8c-.1 0-.1-.1-.3 0 0-1 .3-2.3.6-3.3-.4 1-.4 2.2-.7 3.2-.3 0-.3-.1-.6-.1.6-1.2.4-2.9 1-4.2.4 0 .7.1 1 .1-.3 1.2-.6 2.5-.7 3.6-.1 0-.1-.1-.3 0 .2.2.3.4 0 .7zm0 .3c0 .3-.1.6-.3.7h-.3c0-.3.1-.4.3-.7.2-.2.2 0 .3 0zm-1.6-.9c-.4-.1-.7-.3-1-.4.1-1.3.3-2.6.4-3.9.3 0 .6.1.9.1-.1 1.4-.3 2.6-.3 4.2zm-1.4-.3h.3v.9c-.6 0-.3-.6-.3-.9zm.1-.3c-.3-1.2.1-2.8.1-3.9.1-.1.3 0 .4 0-.2 1.4-.2 2.7-.5 3.9zm1.6-1.3c.1-.7.1-1.5.3-2v-.1c.3 0 .4.1.7.1-.6 1.2-.3 3.3-1 4.1-.3-.5-.1-1.5 0-2.1zm2.5-1.8h.4c-.3 1.2-.4 2.6-.7 3.6-.1 0-.1-.1-.3 0 0-1.1.3-2.4.6-3.6zm-.7 4c.1 0 .3.1.4.1 0 .1-.1.3-.1.4-.3 0-.3 0-.4-.1-.1-.3.1-.3.1-.4zm.6.7c0-.3.1-.3.1-.6.6.1 1 .3 1.5.4 0 .3-.1.3 0 .6-.8-.1-1.1-.4-1.6-.4zm1.6-.4c-.4-.1-.9-.3-1.3-.4.1-1.3.4-2.6.7-3.8.3 0 .6.1.9.1-.2 1.6-.3 2.8-.3 4.1zm.1-4.7c-3.3-.6-6.5-1.3-9.3-2.5v-.3c.3.1.6.3.7.4 0-.1-.1-.1-.1-.3.7.3 1.6.9 2.6.7.1 0 .1.1.3.1.3 0 .3-.3.4-.4.3 0 0 .4 0 .6s.1 0 .1.3c.3 0 .1-.1.4-.1.1 0 .1.3.3.3.3 0 .1-.4.3-.6.1.1.1.1.3 0v.1c.1 0 .1-.1.1-.1.3 0 0 .3 0 .6.3 0 .1-.4.6-.4v.1c0 .1-.1.1-.3.1.4.6 1.7.6 2.6.7.1-.1.1-.1.1-.3.4 0 .7.3 1 .3 0 .4-.3 0-.3.3 0 .1.1.1.3.1 0 .2 0 .3-.1.3zm-9.5-.1c-.4-.3-.1-.9-.3-1.6.1 0 .1.1.3 0v.7c-.1 0 0-.3-.3-.1.2.4.5.5.3 1zm-.4-6.4c.1 0 .3.1.4.1v1.7c-.7.1-.4-1.3-.4-1.8zm.4 2.9c-.1 0-.4-.1-.4-.3 0 .1.4 0 .4.3zm-.4-3.4v-.6c.1 0 .1.1.4.1v.6c-.1.1-.2-.1-.4-.1zm.6 8.8c.4.3.6 1 1 1.2-.1-.9-1.2-1-1-2.2.3.3.6.9.7 1.2.1.3.6.3.6.7.1 0 0-.1.1-.3.3.3.6.4 1 .7-.1.3 0 .7-.1 1-1.2-.3-1.9-1-2.6-2 .1-.1.3-.1.3-.3zm1.6-1.2c-.6-.6-1-1.2-1.3-2 .1 0 .3.1.6.1 0 .7.8.9.7 1.9zm-.7-1.8c.1 0 .6.1.9.3 0 .3-.1.4-.1.7-.3-.4-.5-.7-.8-1zm.5 2.1c0 .3-.1.4 0 .7-.4-.9-1.3-1.3-1.2-2.3.4.4.8 1.1 1.2 1.6zm0 .7c0 .3-.1.3 0 .6-.4-.7-1.2-1.2-1.3-2.2.5.4.8 1.5 1.3 1.6zm1.5 4.2c-.3 0-.6-.1-.7-.4.3 0 .7 0 .7.4zm-.3-2.9c-.4-.1-.7-.3-1-.6.1-1.2.3-2.2.6-3.2 0 .1.3 0 .3.1-.1 1-.3 2.2-.3 3.3.3-.9.1-2.3.6-3.3.4 0 .3.4.3.7-.2 1-.5 2.1-.5 3zm-2.5-9.1c.1.1.3.1.6.3 0 .6-.1 1.2-.1 1.7-.3-.1-.3-.3-.6-.3.1-.6.1-1.2.1-1.7zm.6-.2c-.3 0-.4-.1-.6-.3v-.6c.3 0 .4.1.7.3.1.2-.1.3-.1.6zm-.3 3.1c-.1 0-.4 0-.4-.3.3 0 .4.1.4.3zm1-1.6c.3.1-.1.7-.1 1-.1-.3.1-.7.1-1zm.8 1.3c-.3-.1 0-.7 0-1h.1c-.1.4-.1.5-.1 1zm.3 1.1h-.3v-.3c.3 0 .1.3.3.3zm-.5-.1c-.1 0-.3-.1-.3-.3h.1c.2.1.2.1.2.3zm-.4-1.2c-.1-.3.1-.7.1-1 .2.3 0 .7-.1 1zm.9.3c0-.4.1-.7.1-1h.1c-.1.3-.1.9-.2 1zm.5 1.3h-.1v-.3c.1 0 .1.2.1.3zm.8-2.2c.1.4-.1.7-.1 1.2-.2-.3.1-.7.1-1.2zm.4-.1c0 .1-.1 1.2-.1 1.6-.3-.4.1-1.2.1-1.6zm.4 1.7c-.3 0 0-.4 0-.7.2 0-.1.5 0 .7zm-.1.8c0 .1-.1.1 0 .3-.1 0-.1-.1-.1-.4.1-.1.1.1.1.1zm.6-2.9c-.1 0 0-.6-.1-.7h.1c.1.1.1.4 0 .7zm.1.4c.1.6-.1 1.3-.1 1.9 0-.6.1-1.3.1-1.9zm.5-1.2h.3c0 .3-.1.4-.1.7-.5.4-.1-.2-.2-.7zm.5.2h.3c0 .1-.1.6-.1.9-.4 0-.2-.6-.2-.9zm2.2 2.2c-.1.6-.1 1.3-.4 1.6-.1-.9.3-2.2.4-3.2h.1c.2.3.1 1-.1 1.6zm.5-1.5v-.1c.1 0 .1.1.4 0-.3 1-.3 2.3-.6 3.2-.3-.3 0-.9 0-1.3 0-.6.2-1.1.2-1.8zm-.8 3.9c-.3-.1-.7-.1-1.2-.3 0-.1.1-.1.1-.3.1 0 .3.1.6.1 0 .1.1.1.1.3.1 0 0-.1.1-.3.3.1.3.2.3.5zm-.4-1c-.1-.9.3-2.2.4-3.2.1 0 .1.1.3 0-.4 1-.4 2.3-.7 3.2zm0-1.7c-.1.6-.1 1.3-.4 1.6 0-.9.3-2 .4-3.2h.1c0 .4-.1 1-.1 1.6zm-.4-.2c-.1.6 0 1.2-.3 1.6-.1-.9.3-2 .3-3.1v-.1h.1c.2.5-.1 1-.1 1.6zm-.5 2.6c-.4 0-.6-.1-1-.1 0-.3.3-.3.6-.3 0 .1-.1.1-.1.1.1.1.3-.1.3-.1.1 0 .1.1.3 0 .1.3-.1.2-.1.4zm0-3.2c-.1 0-.3-.1-.3-.1 0-.3.1-.6.1-.9.1 0 .1.1.4 0 0 .3 0 .8-.2 1zm0 0c0 .7-.3 1.3-.3 2h-.4c.1-.6.3-1.3.4-2h.3zm-.4 0c-.1.6-.1 1.6-.6 2-.1-.7.3-1.3.3-2h.3zm-.6-.1c0 .6-.1 1.5-.3 2-.1-.4.1-1.3.1-2h.2zm-.4-.4c-.1-.1-.1-.6 0-.7.3-.1 0 .4 0 .7zm3.9 3.3c-.6 0-.1-1 0-1.5.1-.6.1-1.2.3-1.6v-.1h.3c-.3 1-.5 2.2-.6 3.2zm.7-3.2c.6.1 1.3.1 1.9.3-.1 1.2-.3 2.3-.4 3.5-.6-.1-1.3-.3-1.9-.4.3-1.2.3-2.2.4-3.4zm2.2.4v-.1c.1 0 .1.1.4 0 0 .6-.1 1.3-.3 1.9-.1.6 0 1.3-.3 1.7h-.1c-.1-1 .3-2.3.3-3.5zm1.2 3c0 .3.1.7-.3.7-.1-1 .4-2.5.6-3.6h.1c0 .7-.3 2-.4 2.9zm.7-3c.3 1-.1 2.5-.1 3.6h-.3c0-1.1.1-2.2.4-3.6zm-1.2 3.7c-.1 0-.3-.1-.4 0 0-1.3.4-2.2.4-3.6h.6c-.3 1.1-.6 2.1-.6 3.6zm1.5.6c-.6-.1-1.3-.1-1.9-.3.6 0 1.5.1 1.9.3zm-.2-1.9c0-.7.1-1.3.1-2V72h.2c.1 1-.1 2.6-.3 3.6-.2-.4 0-1.1 0-1.5zm.6 2H38c0-.3.5-.3.3 0zm1 0c0 .3-.4.1-.4 0 .2 0 .4-.1.4 0zm-17.1-7.8c.1 0 .3.1.4.1v.4c-.1-.1-.4-.1-.4-.5zm0 .8c.1 0 .3.1.4.3V71c-.6-.3-.4-1.1-.4-1.9zm.3 2.5c0 .1-.3 0-.3-.1.1-.2.1.1.3.1zm-.3.7c.3.1.4.3.4.6.3-.1.6.1.6.6-.4-.2-.7-.6-1-1.2zm1 6.4c-.3-.1-.3-.3-.3-.6.2.2.3.3.3.6zm0-.7c-.3-.1-.3-.4-.3-.9.3.3.3.5.3.9zm0-1c-.3-.1-.1-.7-.3-1.2.4.3.4.9.3 1.2zm.1 1.7c.1.1.3.4.4.6-.1-.1-.5-.3-.4-.6zm2.2 2.8c-.7-.3-1.5-.7-2-1 .4.1 1.6.4 2 1zm-1.1-.2c.1-.1.4.1.4.3-.1-.1-.3-.3-.4-.3zm.7.5c.3 0 .7.3.9.6-.3 0-.6-.5-.9-.6zm1 .4c.3 0 .7.3.9.6-.5.1-.7-.3-.9-.6zm.9.3c.3-.1.4.3.6.4-.3.3-.5-.1-.6-.4zm.1-.6c.3-.1.4.3.6.3-.3.3-.4-.1-.6-.3zm.8.9c.1 0 .1.3.3.4-.2.2-.3-.1-.3-.4zm.4.3c.3-.1.6.1.7.4-.3.2-.6-.1-.7-.4zm-1-2.2c0-.3.1-.4 0-.9.7.1 1.3.6 2 .7 0 .3-.1.6-.3.7-.6-.1-1.1-.3-1.7-.5zm2 2.5c.3.1.7.1.9.4-.3 0-.9 0-.9-.4zm.7-1.5c0-.3.1-.6.3-.7.1 0 .1.1.3.1 0 .3-.1.4-.3.7-.1.1-.1-.1-.3-.1zm.3 1.9c.7.3 1.6.3 2.3.7-.7-.2-1.7-.2-2.3-.7zm1.8.2c.1-.1.3-.3.6-.3-.2 0-.3.3-.6.3zm.7.4c.1.1.6 0 .6.3-.2-.2-.6.1-.6-.3zm.4-.9c.1 0 0 .3-.1.3-.2 0 0-.3.1-.3zm.2-.7c-.3 0 0-.3 0-.6.1 0 .1.5 0 .6zm0-1.6c.3 0 .1.6 0 .7-.2 0 .1-.4 0-.7zm4.5.7c-.3-.1-.1-.6-.1-.9 0-1.2.1-2.3.3-3.2v-.1h.1c0 1-.3 2.8-.3 4.2zm0 .3v.7s-.1-.1-.3 0v-.7h.3zm-.4-.4c-1.2-.3-2.5-.4-3.5-.7.1-1.3.3-2.5.3-3.9 1.2.1 2.2.4 3.3.4 0 1.1-.3 2.7-.1 4.2zm-3.7.3c0-.3.1-.4 0-.7 1.2.3 2.3.4 3.5.7v.7c-1.2 0-2.3-.4-3.5-.7zm3.7 1.3c-1.2.1-2.6-.4-3.8-.6v-.4c.9.1 1.9.6 2.9.7.3.1.7 0 .9.3zM34 78c-.1 1-.1 2.2-.4 3.1 0-1.2.1-2.8.3-4.1h.1c.1.1 0 .7 0 1zm.3 5.7c.1.1.1.4.3.7-1.1.1-1.5-.9-.3-.7zm-.6.8c.3.1.7 0 .9.3-.2.2-.9.2-.9-.3zm1.4-.7c0 .3.1.4 0 .7-.1 0-.3-.1-.4 0-.1-.1-.1-.6-.3-.7h.7zm-.4 1c.3 0 .7 0 .7.3-.3-.1-.7 0-.7-.3zm.7-.8h.1c0 .3.1.4.1.7-.2 0 0-.4-.2-.7zm.2 1c.1 0 .3 0 .3.1-.2 0-.3 0-.3-.1zm.3-1h.3v.7c-.3 0-.2-.4-.3-.7zm.7.1c.1 0 .3 0 .4.1v.7c-.1 0-.1-.1-.3 0-.1-.4-.1-.6-.1-.8zm.1 1c.1 0 .3 0 .3.1-.1.1-.3.2-.3-.1zm.5-1c.4 0 .4.1.6.7h-.3c-.2-.1-.2-.4-.3-.7zm.7 1.3c-.1 0-.4 0-.4-.1.1 0 .4-.2.4.1zm.3-.4c-.2-.2-.2-.5-.2-.7.1 0 .3.1.4 0 0 .1 0 .4.1.6 0 .1-.3.1-.3.1zm.4.4h-.3c-.1-.1.3-.1.3 0zm.6-.3c-.1 0-.3-.1-.4 0 0-.1-.1-.4-.1-.6.1-.1.3 0 .6 0-.1.2-.1.3-.1.6zm.3-.3v-.3h.4c0 .2-.1.3-.4.3zm-1.9-1.3v-.3c1 .3 2.5.3 3.3.6-1.1 0-2.1-.1-3.3-.3zm2.8-1.3c-.6 0-1.2-.1-1.7-.3.1-1.5.4-2.8.4-4.4.4 0 1 0 1.5.1-.1 1.7-.1 3.3-.2 4.6zm0 1c-.7 0-1.3-.1-1.9-.3 0-.3.1-.4.1-.7.6 0 1.2.1 1.7.3.1.3.2.6.1.7zm-1.9-1.3c-.4 0-.3-.6-.3-.9 0-1 .1-2.3.3-3.3v-.1h.4c0 1.6-.1 3.2-.4 4.3zm-.3.3h.3c0 .3-.1.4-.1.7-.4 0-.2-.5-.2-.7zm2.5 1.2c0-.3.1-.4 0-.7h.3v.7c-.1.1-.2-.2-.3 0zm.4-4.2c0 1 0 2.2-.1 3.2-.4-.1-.1-.9-.1-1.3 0-.7 0-2.2.1-2.9V78h.1c.3 0 0 .7 0 1.2zm.7 3.6c.7.1 1.5.1 2.3.1 0 .3.1.4 0 .7-.7-.1-1.5-.1-2.3-.1-.1-.1 0-.6 0-.7zm2.2-.3c-.7 0-1.5 0-2.2-.1 0-1.5.1-2.9.1-4.5.7 0 1.3.1 2 0 .1 1.6.1 3 .1 4.6zm.1 3.4h-.4c0-.1.1-.3.4-.3v.3zm-2.3-2.1c.7.1 1.6.1 2.3.1-.7.2-1.7.2-2.3-.1zm2.9-1.1c-.7 0-.4-1-.4-1.5v-3h.4c0 1.1.2 3 0 4.5zm0 3.2h-.3v-.4h.3v.4zm0-.6h-.3c-.1-.1.1-.3 0-.3 0-.1.1 0 .3 0v.3zm.2-1.6h-.4c-.1-.1 0-.6-.1-.7 0-.1.4 0 .6 0-.1.2-.1.5-.1.7zm-.2-6.4c-4.2 0-8-.6-11.6-1 0-.3.1-.4.3-.6 0-.1-.3 0-.1-.3.6-.1 1.2.3 1.7.3 0 .1-.1 0-.1.1 4.7.9 10.9 1.5 16.4 1 .9 0 1.5-.3 2.2-.4.3 0 0-.3.1-.4.1 0 0 .4.3.4s.1-.4.4-.4c0 .1-.1.3 0 .3.3-.1.6-.1.9-.1 0-.4-.3-1.2 0-1.5.1-.1-.3 0-.1-.3-.1-.3.1-.3.1-.6-.3 0-.3-.4 0-.6.1.9 0 2 .1 2.8.3 0 .1-.4.3-.6.1-.9-.1-2.5.1-3.2-.1-.1-.1-.3 0-.6 1.9-.1 3.8-.6 5.5-.9.4 1.2.1 3.1.7 3.9-.1.1-.6.3-.7.1-.1-1.2-.3-2.5-.4-3.6-.3 1.2.1 2.8.3 3.8-1.2.4-2.6.6-4.1.9 4.2-.1 7.4-1.6 10.8-2.8v.6C61.2 75.8 54 77.4 45.2 77c-.2 0-.2 0-.2-.2-.3.2-.1.5-.3.5zm21.8-1h.1c0 .1.1.3 0 .4h-.3c.2-.3.1-.4.2-.4zm-.1-.3v-.7c.1.1.3.7 0 .7zm0 4.6c-.7.4-1.7.6-2.6 1 .6-.6 1.6-1.2 2.6-1.6 0 .2.1.3 0 .6zm.3-3.9c.1.1.1.4.1.6-.1 0-.1.1-.3.1 0-.1 0-.6.2-.7zm0 1c.1 0 .1-.1.3-.1v.6c-.1 0-.1 0-.3.1 0-.2-.2-.3 0-.6zm.3.6c0 .1-.1.1-.3.3 0-.2.1-.2.3-.3zm0 .6c.1 0 .1.3.1.4h-.3c-.1 0 0-.3.2-.4zm0 .6c.1.1 0 .7.1 1H67c0-.3-.3-.9 0-1zm-5.4 1c.1-.4.6-.4 1-.7 1.2-.6 2.5-1.3 3.6-1.9.1 0 .1.3.1.4-1.4.9-2.8 1.7-4.7 2.2zm4.8-1.8c-.1.1-.4.1-.6.3 0-.1.3-.3.6-.3zm-1.9 1.2c-.9.6-1.7 1.2-2.8 1.6.1-.6.7-.7 1.3-1 .5-.2.9-.5 1.5-.6zm-3.3-2c1.7-.7 3.3-1.3 4.8-2.3-1.8.7-3.2 1.5-4.8 2.3 0-.4-.1-.7-.1-1 1.7-.4 3.3-.9 5.1-1.5v.7c-1.6.7-3.3 1.7-4.8 2.3-.1-.1-.2-.3-.2-.5zm4.9-1.5c.4.4-.6.7-1 1-1.2.6-2.5 1.3-3.2 1.9 1.5-.7 2.9-1.5 4.4-2.2.1.1.1.4.1.6-1.6.7-3.2 1.7-4.7 2.6-.1-.4-.1-1-.3-1.5 1.5-.8 3.1-1.5 4.7-2.4zm-12.1 6c-.3 0-.4.1-.7.1-.1-.1.4-.6.6-.9-.3.1-.6.7-1 1-.6 0-1 .1-1.6.1v-4.5h2.3c-.3 1.5.1 2.7.4 4.2zm-.4-4.4h.4c.1.7.1 1.6.3 2.3.1.7.6 1.6 0 1.9-.4-1.3-.8-2.5-.7-4.2zm-2.5 4.9c.4 0 1 0 1.3-.1.1 0 0 .1 0 .3.1-.1.9-.4 1.6-.4-.1.1-.3.3-.3.6.1.1.3-.3.4-.4.1.1.1.3.1.6-1 .1-2.2.3-3.2.3.1-.6.1-.4.1-.9zm3.8 1.5c-.1.1-.3.3-.6.3.2-.2.3-.3.6-.3zm-.4-1c0-.1-.1-.4-.1-.7.1-.1.3 0 .4 0 .1.2 0 .4-.3.7.1 0 .3-.4.4-.1 0 .1-.1.1-.4.1zm.4-1.2c0-.6.6-.7.7-1.2-.3.1-.4.4-.7.7-.4-1-.6-2.6-.6-3.8h1c0 1.3.1 2.6.3 3.8-.1.2-.4.7-.7.5zm5-4.5c-.6.6-1.2.9-1.7 1.3.6-.1 1.2-.7 1.6-1 .4.6-.9 1.2-1.3 1.6-.6.4-1.2.7-1.5 1.2 1-.4 1.9-1.5 2.9-1.9v.6c-1.5.7-2.6 1.7-3.9 2.6-.1-1.3-.3-2.8-.4-4.2 1.5-.1 2.8-.4 4.2-.6.1.1-.1.4.1.4zm-4.3 4.8v.7c-.1 0-.3.1-.4 0-.1-.3 0-.8.4-.7zm.6 1.6c0 .1-.4.3-.7.3.1-.1.4-.1.7-.3zm-.3-.9v-.7c.4 0 .9-.1 1.5-.3-.3.4-.9.6-1.2.9 1-.4 1.6-1.2 2.8-1.3-.9.6-1.6 1.3-3.1 1.4zm.8-1.3c1-.9 2.3-1.5 3.2-2.3.1.1.1.4.1.7-.9.8-1.7 1.5-3.3 1.6zm3.4-1.3v.4c-.4 0-.7.3-1.2.3.5-.2.8-.5 1.2-.7zm-13.8 2.6c.4-.1.7-.4 1.5-.3-.1.3-.6.3-.7.7h-1.3v-.7h.7c.1.3-.2.2-.2.3zm2.5-.1c-.4.3-.7 1-1.6.7.6-.3.7-.9 1.6-.7zm1.3-1.2c-.4.3-.6.7-1.5.7.4-.4 1-.7 1.3-1 .4-.1.2.3.2.3zm0 .5v.3c-.1 0-.3 0-.3.1 0-.3.2-.4.3-.4zm-.6.7c-.3.3-.6.7-1.2.7.4-.3.6-.7 1.2-.7zm.6 0c.1.4-.3.4-.3.7h-.6c.3-.3.5-.7.9-.7zm0-1.9c-1 .4-1.3 1.5-2.6 1.5-.1-.1.3-.3.4-.4.6-.4 1.3-1 1.9-1.5-1 .3-1.9 1.2-2.8 1.9h-1.2v-4.5c1.5.1 2.9 0 4.4 0 .1 1 .1 2-.1 3zm-4.8 4.7H45v-.4h.3v.4zm0-.6H45V85h.3v.3zm.3-1.6H45V83h.6v.7zm0-1c-.1.1-.3 0-.6 0v-4.5h.6v4.5zm.3 3.2h-.3v-.4h.3c.1-.1 0 .2 0 .4zm.1-.6h-.3V85c.1.3.1.1.3 0v.3zm.3.6c-.3 0 0-.3-.1-.6h.3c0 .3 0 .6-.2.6zm-.1-.6v-.4h.3c.1.2 0 .4-.3.4zm.6.6c-.1-.4.3-.6.1-1h1c-.4.4-.8.5-1.1 1zm.3 0c.6-.4 1-1 2-1-.1.3-.4.6-.9.4.2.4-.3.7-1.1.6zm1.3 0c.4-.4.9-1 1.7-1-.1.1-.4.4-.7.4-.3.3-.6.6-1 .6zm2.4-1.1c-.4.4-.9.9-1.6 1 .5-.4 1.1-.7 1.6-1zm1.2-.1c-.6.4-1 .9-1.9 1.2.6-.5 1.2-.9 1.9-1.2zm.9-.2c-.6.4-1 .9-1.9 1.2.6-.4 1.1-.9 1.9-1.2zm-.9 1.2c.3-.1.4-.4.7-.6.2.2-.3.6-.7.6zm1.7-1.2c0 .1-.4.4-.7.6 0-.3.5-.4.7-.6zm.2.5c-.3.1-.4.6-1 .6.4-.3.6-.6 1-.6zm1.3-.2c-.4.3-.7.7-1.3.7.3-.4.7-.7 1.3-.7zm-.1.5c.3-.3.7-.4 1-.7.1.1-.3.3-.4.3-.2.2-.4.5-.6.4zm2.1-.5c-.4.1-.9.3-1.5.3.4-.3.9-.6 1.5-.7v.4zm.3 0c-.1 0 0-.3 0-.4.1 0 .3-.1.4 0 .2.3-.2.3-.4.4zm0-.8c0-.1.4 0 .4-.1.2.2-.1.1-.4.1zm.8.4c-.1-.1 0-.3.3-.3-.1.3-.3.2-.3.3zm0-.4c0-.1.1-.1.3-.3.1.3-.2.1-.3.3zm1 .4c-.1 0-.3.1-.4.1 0-.3.3-.3.4-.4v.3zm-.3-.6c0-.1.3-.1.6-.3-.2.2-.3.3-.6.3zm.9.6h-.3c0-.1 0-.3.1-.4h.3c.1 0-.1.3-.1.4zm-.2-.9c0-.1.3-.3.4-.3 0 .3-.1.3-.4.3zm-.4-1c.1-.3.6-.4.7-.7-.9.3-1.3 1-2.5 1 .9-.4 1.6-1.2 2.6-1.6 0 .3.1.6.1 1-.3.2-.6.3-.9.3zm1 1.8c-.1-.1 0-.4.1-.6.3.3.2.6-.1.6zm.1-7.3c0-.1.3 0 .4 0 0 .6.4 1.5 0 1.7.3.3.4 1.3.3 1.7h.1c-.1.1-.3.1-.6.3.1-1.2-.2-2.3-.2-3.7zm.6 7c0-.3 0-.6.3-.4 0 .2 0 .5-.3.4zm.6-2.1c-.1 0-.3.1-.4.1-.1-.3 0-.7-.1-.9.1-.1.3-.1.6-.3 0 .3-.1.1-.3.3 0 .1.3 0 .3 0-.2.5-.1.7-.1.8zm.6 1.8c-.1.1-.3.1-.6.1 0-.1.1-.1 0-.4.1 0 .3-.1.6-.1 0 .1-.2.2 0 .4zm-.2-.8c-.1-.1.1-.1.3-.1 0 .1-.3 0-.3.1zm.5.6c0-.1.1-.3.1-.4.1 0 .1-.1.4 0-.1.3-.1.6-.5.4zm-.8-1.6c0-.4.6-.6 1-.7 1.2-.6 2.3-1.3 3.5-1.9h.1c.1.6-.6.7-1 .9-.9.6-2.1 1.6-3.6 1.7zm1.5 1.5c.1-.1 0-.6.4-.6-.1.3-.1.6-.4.6zm.6-.2c-.1-.1.1-.4.1-.6.3 0 .4-.1.7-.1-.1.3-.2.7-.8.7zm.8-.1c.1-.3.3-.7.7-.9.1.3-.2.9-.7.9zm.6-.2c.1-.4.4-.9.9-1 0 .3-.3 1-.9 1zm.9-.4c.3-.6.6-1 1.2-1.3-.2.4-.5 1.3-1.2 1.3zm1-.4c.1-.1.1-.3.3-.6.1 0 0 .1.1.1 0-.7.6-.9 1-1.2-.1.8-.7 1.4-1.4 1.7zm.9-2.4c0-.7.9-.7 1.2-1.3v.1c-.2.5-.6 1-1.2 1.2zm1.3-4c.1 0 .1.4 0 .6-.1-.2 0-.6 0-.6zm.1.6v.4c-.1.1-.1-.4 0-.4zm0 .7c.1 0 .1.3 0 .4 0-.1-.1-.4 0-.4zm.2 1c0-.1-.1-.4 0-.4v.4zm.1-5.4c-.1 0 0-.1 0-.3h.1c.1 0-.2.2-.1.3zm-.3-.7c-.1-1-.3-1.9-.3-3.1.1 0 .3-.1.4-.3.1.6 0 1.3 0 2 .2.7.5 1.2-.1 1.4zm.6-6c-.1 0-.3-.4-.3-.6.3 0 .3.3.6.3-.1.3-.3.3-.3.3zm.2.9c.6-.1.9-.3 1.3-.3s-.3.1-.4.3c-.3.1-.4.4-.7.4-.1-.3-.2-.3-.2-.4zm.4 6.3c-.1 0 0-.1 0-.3.1 0 .1.1.3.1-.1.2-.3.2-.3.2zm0-.6c.1-.1.3.1.4.1-.1.2-.4 0-.4-.1zm.6-.6c.1-.1.4 0 .3.1 0 0-.2 0-.3-.1zm.7-.2c.1 0 .4 0 .4.3-.1-.1-.4-.1-.4-.3zm.3-.2c.1-.1.3.1.6.1-.2.1-.4 0-.6-.1zm.6-.3c.1-.1.4 0 .6 0-.2.3-.6.3-.6 0zm.4-.2c.1-.3.3-.1.4 0 .1.3-.2 0-.4 0zm.5-.3c0-.4.4 0 .6 0-.2.3-.5 0-.6 0zm.3-.4c0-.1.1-.1.1-.3.3.1.4.3.6.4-.2.3-.6 0-.7-.1zm1 0c-.3-.1-.6-.3-.7-.6.4 0 .7.3 1 .4 0 .2-.3 0-.3.2zm0-.6c0-.1.3.1.6.1-.2.3-.5-.1-.6-.1zm-.6-.6v-.3c.6.3 1 .6 1.6.9-.6.2-1-.6-1.6-.6zm.1-.8c.6.3 1.3.4 1.6 1-.5-.3-1.3-.5-1.6-1zm1.5.1c.1.1.4.1.4.4-.3 0-.4-.1-.4-.4zm.3 1c0-.1-.1-.1 0-.3.1 0 .1.1.3.1-.2.1-.2.2-.3.2zm.3-.6c.1-.1.3.1.4.1-.1.4-.4.1-.4-.1zm.3-.5c.1.1.4.1.6.3-.2.2-.8.1-.6-.3zm.7.1c-.1-.1-.6-.3-.7-.4v-.4c.4.1.7.4 1.2.6-.2-.1-.2.2-.5.2zm.6-.6c-.6-.3-1-.6-1.5-.7-.1-1.3-.6-2.3-1-3.5.1-.3.4-.4.7-.6.3.7.6 1.6.9 2.3 0-.9-.4-1.7-.6-2.5.4-.4 1.2-.9 1.6-1.5.7 1.2 1.3 2.3 2 3.5-.7 1.3-1.3 2.3-2.1 3zm.3-6.4c0-.1.1-.3.3-.4.7 1.2 1.6 2.5 1.9 3.9-.9-1-1.7-2.2-2.2-3.5zm2.3 3.2c-.4-1.5-1.3-2.5-1.9-3.6 0-.3.3-.3.3-.6.9 1 1.3 2.5 1.9 3.8 0 .1-.3.1-.3.4zm2.3-5.4c-.4 1.6-1 3.6-1.9 4.8-.6-1.9-1.6-3.5-2.5-4.9 1-1.6 1.3-2.8 1.9-4.9.6 1.5 1.2 3.1 2.3 3.9 0 .3.1.6.3.9.1-2.5-2-4.1-2.3-6.3.6 1.2 1.6 2.2 2.2 3.5.1.4.6.9.6 1.3-.1.4-.4 1.2-.6 1.7zm-2.5-5.8c.7 1.5 1.5 2.8 2 4.2-.8-1-1.5-2.6-2-4.2zm3.1 3.7c-.7-1.7-2-3.2-2.9-4.8-.1-1.5-.1-2.8-.4-3.9.6 1.6 1.7 2.9 2.6 4.5.3.4.7 1.2.7 1.6.1.7-.1 1.5 0 2.6z"/><path d="M80.1 58.5c.3-.4.9-1.3.6-1.7-.2.6-.6 1.1-.6 1.7zM56.8 66.2c-.6.1-.7-1.2-.7-1.2-.7-3.9-1.9-8-2.5-11.3 0 2.6.9 4.4 1.5 7 .3 1 .4 1.9.6 3.2.1.9.1 2.8 1.2 2.6.7-.1.7-2.6.6-3.3-.1.5 0 2.9-.7 3zM60.1 63.5c-.1 0-.1-.1-.1-.1-.1.1 0 .3 0 .4.1.1.1-.2.1-.3zM31.3 57.5c.3-.1.6-.3.6-.6-.3.2-.6.3-.6.6z"/></g></svg>